<?xml version="1.0" encoding="UTF-8"?>
<svg version="1.1" xmlns="http://www.w3.org/2000/svg" width="800" height="165">
<path d="M0 0 C3.15334378 2.25935456 5.6734614 4.75524845 8.2734375 7.62890625 C8.93085938 6.97535156 8.93085938 6.97535156 9.6015625 6.30859375 C20.19755372 -3.64130044 32.31953105 -7.7832935 46.6484375 -7.68359375 C47.47770752 -7.6794043 48.30697754 -7.67521484 49.16137695 -7.67089844 C55.56150233 -7.55333873 61.28587614 -6.74352372 67.2734375 -4.37109375 C67.97339844 -4.10425781 68.67335938 -3.83742187 69.39453125 -3.5625 C78.90325568 0.60799317 86.32369883 8.35371046 90.203125 17.921875 C92.68480659 24.97694123 93.42386039 31.7051434 93.43457031 39.17285156 C93.43953522 40.0093222 93.44450012 40.84579285 93.44961548 41.70761108 C93.46414909 44.45742631 93.47102089 47.20718404 93.4765625 49.95703125 C93.48231694 51.87180584 93.48807464 53.78658041 93.49383545 55.70135498 C93.50431733 59.70585396 93.51017979 63.710333 93.51367188 67.71484375 C93.51918039 72.85550846 93.54327005 77.99591146 93.57164383 83.13649368 C93.59021845 87.08604725 93.59547282 91.03553674 93.59700775 94.98513031 C93.60004164 96.88143103 93.60809479 98.77773043 93.62119293 100.67398834 C93.63816104 103.31704603 93.63639723 105.95944972 93.62988281 108.60253906 C93.6390976 109.39008575 93.64831238 110.17763245 93.6578064 110.98904419 C93.64093018 113.16387939 93.64093018 113.16387939 93.2734375 116.62890625 C89.61690006 119.06659788 86.87553898 118.9183389 82.6484375 118.89453125 C81.90513184 118.8964447 81.16182617 118.89835815 80.39599609 118.90032959 C78.82584291 118.90168942 77.2556784 118.89800704 75.68554688 118.88964844 C73.28229517 118.8789457 70.87979096 118.88955015 68.4765625 118.90234375 C66.95051918 118.90102212 65.42447633 118.89845965 63.8984375 118.89453125 C63.17962402 118.89857971 62.46081055 118.90262817 61.72021484 118.90679932 C58.01993316 118.87202307 56.43577349 118.73713024 53.2734375 116.62890625 C52.88816833 113.79148865 52.88816833 113.79148865 52.87280273 110.11889648 C52.86582367 109.45031113 52.8588446 108.78172577 52.85165405 108.09288025 C52.83160257 105.87429348 52.83217715 103.65616958 52.83203125 101.4375 C52.82025857 99.89248908 52.80689461 98.34748954 52.79200745 96.80250549 C52.75573477 92.72395721 52.73560468 88.64550948 52.72045898 84.5668335 C52.69569517 78.06363458 52.65561405 71.56065864 52.59855843 65.05766487 C52.58235365 62.79501662 52.57846155 60.53258108 52.57554626 58.2698822 C52.67722369 46.05344185 52.67722369 46.05344185 48.5859375 34.75390625 C44.76661933 31.24426252 41.00850901 29.85382293 35.8984375 29.19140625 C29.50620944 29.96288205 24.58209865 31.87414345 20.17285156 36.66259766 C15.46248555 43.11050619 16.48481222 51.1261488 16.57421875 58.74609375 C16.57058169 60.41139646 16.56387492 62.07669504 16.554245 63.74197388 C16.53524776 68.10452974 16.54915493 72.46628546 16.57275391 76.82879639 C16.60726539 83.83159246 16.60141135 90.83419815 16.5766201 97.83700943 C16.57424413 100.28247149 16.59206664 102.72720683 16.6118927 105.1725769 C16.61214068 106.66306563 16.61174399 108.15355466 16.6105957 109.64404297 C16.61758987 110.94783905 16.62458405 112.25163513 16.63179016 113.59494019 C16.45440559 115.09675339 16.45440559 115.09675339 16.2734375 116.62890625 C12.61690006 119.06659788 9.87553898 118.9183389 5.6484375 118.89453125 C4.90513184 118.8964447 4.16182617 118.89835815 3.39599609 118.90032959 C1.82584291 118.90168942 0.2556784 118.89800704 -1.31445312 118.88964844 C-3.71770483 118.8789457 -6.12020904 118.88955015 -8.5234375 118.90234375 C-10.04948082 118.90102212 -11.57552367 118.89845965 -13.1015625 118.89453125 C-13.82037598 118.89857971 -14.53918945 118.90262817 -15.27978516 118.90679932 C-18.98006684 118.87202307 -20.56422651 118.73713024 -23.7265625 116.62890625 C-24.10510254 113.76025391 -24.10510254 113.76025391 -24.11132812 110.04296875 C-24.1167009 109.36623611 -24.12207367 108.68950348 -24.12760925 107.99226379 C-24.13740542 106.51960101 -24.14032585 105.04688039 -24.13725281 103.57418823 C-24.1327772 101.23545901 -24.14677157 98.89748772 -24.16564941 96.55883789 C-24.20249618 91.5822067 -24.21612806 86.60565369 -24.2265625 81.62890625 C-24.23867522 75.88733566 -24.2605144 70.14613132 -24.30656433 64.40472412 C-24.3200275 62.11488022 -24.31598073 59.82551176 -24.31115723 57.53564453 C-24.13742325 44.34405802 -24.13742325 44.34405802 -30.1015625 33.12890625 C-35.18859511 30.22203047 -38.77791077 29.11609145 -44.7265625 29.62890625 C-51.22268359 31.75694592 -54.96608403 34.98818855 -58.7265625 40.62890625 C-59.03671474 43.89874193 -59.03671474 43.89874193 -58.99780273 47.69897461 C-59.00564285 48.7726403 -59.00564285 48.7726403 -59.01364136 49.86799622 C-59.02387862 51.42141973 -59.02966129 52.97487753 -59.03152275 54.52833366 C-59.03518372 56.98719704 -59.05190226 59.44565609 -59.07228088 61.9044342 C-59.12772168 68.89479052 -59.15839022 75.88520639 -59.18286133 82.87573242 C-59.19873443 87.15221501 -59.22895025 91.42841045 -59.26762581 95.70474434 C-59.27927781 97.33419306 -59.28520618 98.96369314 -59.28530693 100.59318352 C-59.28549895 102.87224185 -59.30376162 105.15050803 -59.32592773 107.42944336 C-59.33353371 109.37444984 -59.33353371 109.37444984 -59.34129333 111.35874939 C-59.74878022 114.81748984 -60.19686797 116.2674813 -62.7265625 118.62890625 C-65.47646076 119.02243278 -67.82170748 119.166688 -70.5703125 119.125 C-71.33581421 119.12645523 -72.10131592 119.12791046 -72.89001465 119.12940979 C-74.50728158 119.12775098 -76.12456433 119.11619148 -77.74169922 119.09545898 C-80.21780414 119.06650865 -82.69176751 119.07484763 -85.16796875 119.08789062 C-86.73959374 119.08165291 -88.31121197 119.0732617 -89.8828125 119.0625 C-90.99384338 119.06690346 -90.99384338 119.06690346 -92.12731934 119.07139587 C-97.24350874 118.97745686 -97.24350874 118.97745686 -99.42228985 117.40534306 C-101.13146133 115.07742863 -101.10134198 113.67700602 -101.1007843 110.80186462 C-101.10779861 109.80776077 -101.11481293 108.81365692 -101.12203979 107.78942871 C-101.11057419 106.15523987 -101.11057419 106.15523987 -101.09887695 104.48803711 C-101.10252762 103.33989029 -101.10617828 102.19174347 -101.10993958 101.00880432 C-101.11806316 97.203637 -101.10442031 93.39889306 -101.08984375 89.59375 C-101.0893254 86.95723979 -101.08984213 84.32072919 -101.09135437 81.68421936 C-101.09223736 76.15523189 -101.08115501 70.62636702 -101.06274414 65.09741211 C-101.04156591 58.70067153 -101.03806879 52.30411044 -101.0443061 45.9073419 C-101.04999565 39.75797477 -101.04425553 33.60868116 -101.03313255 27.45932198 C-101.02927267 24.84014707 -101.02813558 22.22096674 -101.0297184 19.60178947 C-101.03008757 15.94788048 -101.01751062 12.29424842 -101.0012207 8.64038086 C-101.00369812 7.5488974 -101.00617554 6.45741394 -101.00872803 5.33285522 C-101.00164322 4.3415712 -100.99455841 3.35028717 -100.98725891 2.32896423 C-100.98520604 1.4645317 -100.98315317 0.60009916 -100.98103809 -0.2905283 C-100.7265625 -2.37109375 -100.7265625 -2.37109375 -98.7265625 -4.37109375 C-95.95338891 -4.58315331 -93.28258213 -4.67506516 -90.5078125 -4.671875 C-89.69413208 -4.67616013 -88.88045166 -4.68044525 -88.04211426 -4.68486023 C-86.32056612 -4.69060711 -84.59899369 -4.69110115 -82.87744141 -4.68676758 C-80.2368857 -4.68360611 -77.59744843 -4.70706639 -74.95703125 -4.73242188 C-73.28645975 -4.73469461 -71.61588523 -4.73539848 -69.9453125 -4.734375 C-69.15257935 -4.74358475 -68.35984619 -4.75279449 -67.54309082 -4.76228333 C-65.31835938 -4.7434082 -65.31835938 -4.7434082 -61.7265625 -4.37109375 C-59.60148006 -1.1834701 -59.2245462 0.89402848 -58.7265625 4.62890625 C-58.07171875 4.0978125 -57.416875 3.56671875 -56.7421875 3.01953125 C-39.63802174 -10.21928631 -18.40896259 -11.58545122 0 0 Z " fill="#000000" transform="translate(334.7265625,44.37109375)"/>
<path d="M0 0 C1.15628906 0.00607269 1.15628906 0.00607269 2.3359375 0.01226807 C3.12742187 0.01035461 3.91890625 0.00844116 4.734375 0.00646973 C6.4088574 0.00510789 8.08335035 0.00880425 9.7578125 0.01715088 C12.32576131 0.02785067 14.89301053 0.01725582 17.4609375 0.00445557 C19.08593905 0.00577716 20.71094016 0.00833956 22.3359375 0.01226807 C23.10679687 0.0082196 23.87765625 0.00417114 24.671875 0 C30.10601618 0.04797174 30.10601618 0.04797174 32.3359375 2.27789307 C32.6144104 5.13790894 32.6144104 5.13790894 32.65478516 8.83892822 C32.66483078 9.51221664 32.6748764 10.18550507 32.68522644 10.87919617 C32.71615932 13.10844047 32.73312118 15.33756416 32.75 17.56695557 C32.76870357 19.11110479 32.78827637 20.65524371 32.8086853 22.19937134 C32.8600984 26.26651952 32.89967477 30.33370087 32.93682861 34.40100098 C32.97681093 38.55015327 33.02792952 42.69916649 33.078125 46.84820557 C33.17499287 54.99133987 33.25936264 63.13454278 33.3359375 71.27789307 C33.82146088 70.82004425 34.30698425 70.36219543 34.80722046 69.89047241 C37.03248314 67.79256638 39.2584237 65.69538093 41.484375 63.59820557 C42.62990845 62.51793091 42.62990845 62.51793091 43.79858398 61.41583252 C49.24088716 56.28970403 54.71242785 51.2057108 60.3359375 46.27789307 C60.79827286 45.78818024 61.26060822 45.29846741 61.73695374 44.79391479 C65.8689228 40.70118403 68.85076097 39.58746306 74.63374329 39.54681396 C75.53191269 39.57150757 76.43008209 39.59620117 77.35546875 39.62164307 C78.76514168 39.62726257 78.76514168 39.62726257 80.20329285 39.63299561 C82.17758507 39.64637834 84.15182688 39.6740919 86.12573242 39.71539307 C89.15658484 39.77806153 92.18535887 39.79737525 95.21679688 39.80914307 C97.13804637 39.82747088 99.05927464 39.84821854 100.98046875 39.87164307 C102.34290459 39.8843927 102.34290459 39.8843927 103.73286438 39.8973999 C104.57101181 39.91661499 105.40915924 39.93583008 106.27270508 39.95562744 C107.38020866 39.97611145 107.38020866 39.97611145 108.51008606 39.99700928 C110.3359375 40.27789307 110.3359375 40.27789307 112.3359375 42.27789307 C112.76631577 45.30599995 112.75080674 46.72073046 110.90234375 49.20318604 C110.24105469 49.80276123 109.57976562 50.40233643 108.8984375 51.02008057 C107.80208984 52.0313501 107.80208984 52.0313501 106.68359375 53.06304932 C105.90886719 53.75269775 105.13414062 54.44234619 104.3359375 55.15289307 C103.22025391 56.17576416 103.22025391 56.17576416 102.08203125 57.21929932 C97.836097 61.09602189 93.51390823 64.88428836 89.1796875 68.66168213 C86.53457822 70.98035579 83.93428466 73.34440128 81.3359375 75.71539307 C80.3871875 76.580354 79.4384375 77.44531494 78.4609375 78.33648682 C77.7596875 78.97715088 77.0584375 79.61781494 76.3359375 80.27789307 C78.01713855 86.39416438 81.11111187 91.6930633 84.1484375 97.21539307 C84.7252124 98.27226318 85.3019873 99.3291333 85.89624023 100.41802979 C89.83649253 107.61411004 93.85083098 114.76677611 97.8984375 121.90289307 C99.4998423 124.73220429 101.10082828 127.56175098 102.70117188 130.3916626 C103.82213271 132.37075445 104.94598047 134.34821311 106.07226562 136.32427979 C107.77695742 139.3227279 109.46436087 142.33032927 111.1484375 145.34039307 C111.67058838 146.25063232 112.19273926 147.16087158 112.73071289 148.09869385 C115.24805528 152.63392969 117.06561112 155.9240228 116.3359375 161.27789307 C112.49303447 163.81300519 108.46800723 163.61817961 104.02734375 163.64898682 C103.22360825 163.65801529 102.41987274 163.66704376 101.59178162 163.67634583 C99.894803 163.69082845 98.1977688 163.69973012 96.50073242 163.70343018 C93.91033684 163.71533836 91.32231582 163.76454836 88.73242188 163.81500244 C87.08074075 163.82446614 85.42904505 163.83170143 83.77734375 163.83648682 C83.00636856 163.85601913 82.23539337 163.87555145 81.4410553 163.89567566 C77.71406903 163.86453854 75.63461338 163.49565203 72.59912109 161.28253174 C69.81323835 157.58394933 67.73540727 153.7856322 65.68359375 149.64508057 C65.26097763 148.81259796 64.83836151 147.98011536 64.40293884 147.12240601 C63.05888114 144.47044428 61.72824469 141.81202467 60.3984375 139.15289307 C59.07234566 136.52246048 57.74349222 133.89344027 56.41390991 131.26477051 C55.55878458 129.57333287 54.70526254 127.88108362 53.85342407 126.18798828 C51.12421154 120.77704312 48.29417067 115.44759618 45.29467773 110.1807251 C44.3359375 108.27789307 44.3359375 108.27789307 44.3359375 106.27789307 C43.06392779 107.38070433 41.79337897 108.48520076 40.5234375 109.59039307 C39.46189453 110.51271729 39.46189453 110.51271729 38.37890625 111.45367432 C37.70472656 112.0556665 37.03054688 112.65765869 36.3359375 113.27789307 C35.80673706 113.72116943 35.27753662 114.1644458 34.7322998 114.62115479 C32.94690635 116.73946582 32.95853464 117.86491382 32.95117188 120.60992432 C32.94106079 121.48092773 32.93094971 122.35193115 32.92053223 123.24932861 C32.92355347 124.18687988 32.92657471 125.12443115 32.9296875 126.09039307 C32.91885132 127.05565918 32.90801514 128.02092529 32.89685059 129.01544189 C32.86253336 132.10299386 32.84698221 135.19017526 32.8359375 138.27789307 C32.82140472 142.34075158 32.78779486 146.40277787 32.7421875 150.46539307 C32.74520874 151.40294434 32.74822998 152.34049561 32.75134277 153.30645752 C32.74123169 154.17746094 32.73112061 155.04846436 32.72070312 155.94586182 C32.71864868 156.71180664 32.71659424 157.47775146 32.71447754 158.26690674 C32.2286782 160.84770591 31.43295267 161.72927548 29.3359375 163.27789307 C26.63070197 163.5638885 24.16055087 163.67464826 21.45703125 163.64117432 C20.30522118 163.64192207 20.30522118 163.64192207 19.13014221 163.64268494 C17.5086915 163.6403464 15.88723702 163.63063076 14.26586914 163.61407471 C11.77913107 163.59044716 9.29346267 163.5935193 6.80664062 163.60015869 C5.23176442 163.594583 3.65689274 163.58747381 2.08203125 163.57867432 C1.33618271 163.57958572 0.59033417 163.58049713 -0.17811584 163.58143616 C-5.43301959 163.50893597 -5.43301959 163.50893597 -7.6640625 161.27789307 C-7.91574478 158.55422211 -7.91574478 158.55422211 -7.91802979 155.0145874 C-7.92114977 154.36500486 -7.92426975 153.71542232 -7.92748427 153.04615545 C-7.93549049 150.85963838 -7.92913061 148.67339681 -7.92285156 146.48687744 C-7.92556027 144.92334327 -7.92912052 143.35981037 -7.93347168 141.79627991 C-7.94261233 137.54223584 -7.93904456 133.28828845 -7.93271351 129.03424263 C-7.92766216 124.58953713 -7.93234254 120.14484009 -7.93548584 115.70013428 C-7.93912802 108.23499052 -7.9343198 100.76988629 -7.92480469 93.30474854 C-7.91391965 84.66486808 -7.91744505 76.02508201 -7.9284575 67.38520384 C-7.93752322 59.97711741 -7.93881916 52.56905944 -7.93358016 45.16096926 C-7.93045651 40.73208856 -7.93006189 36.30325227 -7.93665314 31.87437439 C-7.9424156 27.71132154 -7.93844998 23.54839079 -7.92686462 19.38535118 C-7.92421213 17.85426219 -7.92499313 16.32316299 -7.92938995 14.79207802 C-7.93482379 12.7083112 -7.92803811 10.62494007 -7.91802979 8.54119873 C-7.91727573 7.37311928 -7.91652168 6.20503983 -7.91574478 5.00156403 C-7.43053254 -0.24933596 -4.61274855 0.04072062 0 0 Z " fill="#000000" transform="translate(569.6640625,-0.27789306640625)"/>
<path d="M0 0 C9.30038146 8.48704011 12.95685297 19.93740897 13.6733551 32.2220993 C13.87084624 37.79236169 13.86055363 43.36443721 13.85546875 48.9375 C13.85936343 50.72680764 13.86369967 52.51611436 13.86845398 54.30541992 C13.87586683 58.03030417 13.87565804 61.7550935 13.87036133 65.47998047 C13.86452893 70.25262086 13.88161167 75.02487792 13.904706 79.79745483 C13.91941978 83.48116319 13.92031903 87.16477821 13.91719627 90.84851074 C13.91770922 92.60917936 13.922942 94.36985324 13.93300819 96.13049316 C13.94532937 98.5833471 13.93861086 101.03543976 13.92700195 103.48828125 C13.93464569 104.21245743 13.94228943 104.93663361 13.95016479 105.68275452 C13.91798063 108.75559181 13.70390763 110.90952318 12.23905945 113.63833618 C9.56523114 116.09753059 6.59057536 115.71941506 3.1484375 115.6484375 C2.42732788 115.64752106 1.70621826 115.64660461 0.96325684 115.6456604 C-0.55988149 115.63962405 -2.08300793 115.62387665 -3.60595703 115.59912109 C-5.93696849 115.56263062 -8.2663891 115.55810161 -10.59765625 115.55859375 C-12.07813873 115.54876151 -13.55861045 115.53710404 -15.0390625 115.5234375 C-15.7360022 115.52121185 -16.43294189 115.51898621 -17.15100098 115.51669312 C-20.79193869 115.44530549 -22.33100132 115.26370745 -25.4453125 113.1875 C-26.1328125 109.5625 -26.1328125 109.5625 -26.4453125 106.1875 C-27.31929687 106.87585938 -27.31929687 106.87585938 -28.2109375 107.578125 C-40.4128303 116.71035923 -52.53067943 118.7031743 -67.4453125 117.1875 C-78.96886198 115.03558855 -88.20925605 108.84526751 -95.04296875 99.390625 C-101.05468542 89.94603391 -102.20594967 78.12097353 -99.796875 67.265625 C-95.99113174 56.7916991 -88.22748694 50.09607621 -78.4453125 45.1875 C-67.33879431 40.62268508 -55.60835534 37.82494203 -44.0078125 34.8125 C-43.31006714 34.63115509 -42.61232178 34.44981018 -41.89343262 34.26296997 C-39.89246173 33.74570999 -37.89001753 33.23472431 -35.88671875 32.7265625 C-34.71826416 32.42959473 -33.54980957 32.13262695 -32.34594727 31.82666016 C-29.4453125 31.1875 -29.4453125 31.1875 -26.4453125 31.1875 C-28.52267555 26.10950143 -30.51214675 23.65408287 -35.4453125 21.1875 C-41.53988204 19.6150781 -47.56368295 19.93896742 -53.4453125 22.1875 C-56.80018176 24.19749793 -59.0600117 26.50937059 -61.0078125 29.9375 C-62.4453125 32.1875 -62.4453125 32.1875 -64.6262207 32.91333008 C-68.06048256 33.24732818 -70.6430606 32.66711835 -73.98828125 31.82421875 C-75.22642578 31.51419922 -76.46457031 31.20417969 -77.74023438 30.88476562 C-78.37888428 30.71887939 -79.01753418 30.55299316 -79.67553711 30.38208008 C-81.63405035 29.8746793 -83.59662922 29.38640198 -85.56054688 28.90039062 C-95.17829241 26.45452009 -95.17829241 26.45452009 -97.4453125 24.1875 C-97.4453125 15.2137731 -92.66439551 9.38056807 -86.7578125 3 C-64.96706697 -17.79837761 -23.50375215 -17.4213115 0 0 Z M-39.1328125 61.4375 C-40.76766602 61.88802734 -40.76766602 61.88802734 -42.43554688 62.34765625 C-49.19340024 64.28082185 -54.20928017 66.16024395 -59.3828125 71 C-61.02106909 74.37288121 -60.39742711 76.63293879 -59.4453125 80.1875 C-56.73453686 83.90226662 -53.90465776 85.24417696 -49.4453125 86.1875 C-41.28541101 86.33321253 -34.41009306 82.04317228 -27.4453125 78.1875 C-26.24035341 77.20342689 -26.24035341 77.20342689 -26.33178711 75.32983398 C-26.33702393 74.53907471 -26.34226074 73.74831543 -26.34765625 72.93359375 C-26.35087891 72.07958984 -26.35410156 71.22558594 -26.35742188 70.34570312 C-26.36580078 69.44787109 -26.37417969 68.55003906 -26.3828125 67.625 C-26.38732422 66.72330078 -26.39183594 65.82160156 -26.39648438 64.89257812 C-26.40831025 62.65748686 -26.4247903 60.42252563 -26.4453125 58.1875 C-30.55815426 58.1875 -35.20495628 60.3191679 -39.1328125 61.4375 Z " fill="#000000" transform="translate(537.4453125,47.8125)"/>
<path d="M0 0 C10.78019126 9.11488925 16.81220552 23.66334678 18.73828125 37.34765625 C19.08392175 41.5050786 19.22493295 45.63787722 19.265625 49.80859375 C19.2797644 50.92959473 19.2797644 50.92959473 19.29418945 52.07324219 C19.26141841 57.43780034 19.26141841 57.43780034 17.015625 59.68359375 C14.42554191 59.8714758 11.94331567 59.93547141 9.35302734 59.91064453 C8.56269608 59.91093658 7.77236481 59.91122864 6.95808411 59.91152954 C4.33913286 59.91013337 1.7204642 59.8945588 -0.8984375 59.87890625 C-2.71161748 59.87517714 -4.52479947 59.87232969 -6.33798218 59.87033081 C-11.11545351 59.86268632 -15.89280367 59.84303087 -20.67022705 59.82092285 C-25.54315552 59.80048195 -30.41610353 59.79133286 -35.2890625 59.78125 C-44.85421997 59.75978572 -54.41928742 59.72563998 -63.984375 59.68359375 C-63.3564087 61.4582893 -62.72405867 63.23143413 -62.08984375 65.00390625 C-61.73817139 65.99148926 -61.38649902 66.97907227 -61.02416992 67.99658203 C-58.36712713 74.86284475 -53.44100193 77.72809551 -46.984375 80.68359375 C-39.12772074 83.25398064 -29.86687528 82.50492314 -22.39453125 79.17578125 C-18.55428665 76.79819059 -15.5019171 73.68113398 -12.40625 70.4140625 C-9.984375 68.68359375 -9.984375 68.68359375 -7.296875 68.51953125 C-2.38033978 70.24727594 1.54021649 73.1144294 5.765625 76.12109375 C6.62800781 76.71986328 7.49039063 77.31863281 8.37890625 77.93554688 C14.64831575 82.3162845 14.64831575 82.3162845 17.015625 84.68359375 C17.23867016 89.25601944 15.40968601 91.76898314 12.578125 95.12109375 C1.27443982 107.04608077 -13.87615825 113.44060524 -30.2421875 114.01953125 C-51.26226282 114.29645153 -69.89465356 112.21761344 -85.73828125 96.95703125 C-86.47949219 96.20679688 -87.22070312 95.4565625 -87.984375 94.68359375 C-88.63277344 94.05710937 -89.28117188 93.430625 -89.94921875 92.78515625 C-101.8339368 80.45833709 -104.50568217 63.41571044 -104.40405273 46.99072266 C-103.96125592 30.34668803 -98.80878685 14.94684783 -87.14453125 2.67578125 C-61.90102672 -20.6048468 -26.58857542 -20.63746757 0 0 Z M-56.796875 20.87109375 C-60.03162037 25.03005209 -62.984375 29.30295837 -62.984375 34.68359375 C-49.454375 34.68359375 -35.924375 34.68359375 -21.984375 34.68359375 C-23.01426094 26.44450623 -23.82672846 23.67163145 -29.984375 18.68359375 C-38.93743848 14.04413798 -48.78687587 14.64109443 -56.796875 20.87109375 Z " fill="#000000" transform="translate(780.984375,51.31640625)"/>
<path d="M0 0 C3.71478537 0.87061461 6.65136981 2.04672052 10.04443359 3.77539062 C11.19041016 4.35417969 12.33638672 4.93296875 13.51708984 5.52929688 C14.70591414 6.14253507 15.89471597 6.75581682 17.08349609 7.36914062 C18.29529 7.98330202 19.5075263 8.59659137 20.72021484 9.20898438 C29.52605442 13.68669895 29.52605442 13.68669895 30.70849609 14.86914062 C31.6046057 21.03293981 28.75880478 25.57983331 26.04272461 30.89770508 C25.5468988 31.89183914 25.051073 32.88597321 24.54022217 33.91023254 C22.90071361 37.19016695 21.2442829 40.46123338 19.58740234 43.73242188 C18.4453763 46.0078199 17.30435262 48.28372127 16.16429138 50.56010437 C13.77464057 55.32569309 11.37772816 60.08751392 8.97387695 64.84594727 C5.58053241 71.56313323 2.203305 78.28832604 -1.17091644 85.0151335 C-3.78998248 90.23498457 -6.4135695 95.45256402 -9.03759766 100.66992188 C-9.59964842 101.7875976 -10.16169918 102.90527332 -10.74078178 104.05681801 C-12.32361033 107.20159039 -13.90938866 110.34485425 -15.49633789 113.48754883 C-15.96963028 114.42830261 -16.44292267 115.3690564 -16.93055725 116.33831787 C-17.36105377 117.18926529 -17.79155029 118.04021271 -18.23509216 118.91694641 C-18.79784678 120.03214897 -18.79784678 120.03214897 -19.37197018 121.16988087 C-20.29150391 122.86914062 -20.29150391 122.86914062 -21.29150391 123.86914062 C-26.35268904 124.35073563 -29.48773284 123.13100674 -33.96728516 120.84179688 C-34.57791306 120.53342392 -35.18854095 120.22505096 -35.81767273 119.90733337 C-37.75237158 118.92659039 -39.67795126 117.92923713 -41.60400391 116.93164062 C-42.91661656 116.26456456 -44.22976307 115.59853784 -45.54345703 114.93359375 C-55.07838055 110.08226399 -55.07838055 110.08226399 -56.29150391 108.86914062 C-57.15464386 102.7662495 -54.43368248 98.32695724 -51.74926758 93.0559082 C-51.26640793 92.08449387 -50.78354828 91.11307953 -50.28605652 90.11222839 C-48.68885855 86.90672937 -47.07455817 83.71019078 -45.45947266 80.51367188 C-44.3447721 78.28784749 -43.23095872 76.0615786 -42.11799622 73.83488464 C-39.48525509 68.574694 -36.84104104 63.32039022 -34.19199973 58.06839246 C-31.48121635 52.69147935 -28.78758421 47.30608404 -26.09546947 41.91980457 C-23.79692693 37.32353459 -21.49214644 32.73041687 -19.18523598 28.1383419 C-18.07819034 25.9338062 -16.97260317 23.72853747 -15.86849022 21.52253151 C-14.32564991 18.44334428 -12.77497629 15.36823585 -11.22192383 12.29418945 C-10.76517273 11.3793277 -10.30842163 10.46446594 -9.83782959 9.5218811 C-9.41299789 8.68501266 -8.9881662 7.84814423 -8.55046082 6.98591614 C-8.184509 6.25904004 -7.81855719 5.53216394 -7.44151592 4.7832613 C-5.26599065 1.1622401 -4.37747601 -0.17403406 0 0 Z " fill="#E20FF7" transform="translate(56.29150390625,39.130859375)"/>
<path d="M0 0 C1.07894531 0.21720703 2.15789062 0.43441406 3.26953125 0.65820312 C4.30207031 0.87283203 5.33460937 1.08746094 6.3984375 1.30859375 C7.33091309 1.50122803 8.26338867 1.6938623 9.22412109 1.89233398 C11.625 2.5625 11.625 2.5625 14.625 4.5625 C15.19052874 10.97287255 13.98843702 16.97049456 12.74487305 23.24536133 C12.44486389 24.8053334 12.44486389 24.8053334 12.13879395 26.39682007 C11.47922305 29.81428705 10.80853059 33.2294511 10.13671875 36.64453125 C9.67275554 39.02481361 9.20912206 41.40516025 8.74580383 43.78556824 C7.77490861 48.76358996 6.79816093 53.74042101 5.81762695 58.71655273 C4.56036191 65.10097114 3.32063132 71.48865388 2.08557415 77.8774004 C1.13367643 82.78850933 0.17112442 87.69748416 -0.79454613 92.60590172 C-1.25628765 94.96116979 -1.71435053 97.31716209 -2.16869545 99.67386818 C-2.8036589 102.96040114 -3.45323245 106.24371287 -4.10668945 109.52661133 C-4.29226913 110.50378616 -4.47784882 111.480961 -4.66905212 112.48774719 C-4.84987335 113.38062439 -5.03069458 114.27350159 -5.21699524 115.19343567 C-5.36909108 115.96933454 -5.52118692 116.7452334 -5.67789173 117.54464436 C-6.49503372 119.90995065 -7.41925314 121.02057713 -9.375 122.5625 C-11.63256836 122.72021484 -11.63256836 122.72021484 -14.27734375 122.3984375 C-15.25558105 122.27952148 -16.23381836 122.16060547 -17.24169922 122.03808594 C-22.50845789 121.23867454 -27.72197107 120.26990749 -32.9375 119.1875 C-34.01580078 118.97867188 -35.09410156 118.76984375 -36.20507812 118.5546875 C-37.23181641 118.34328125 -38.25855469 118.131875 -39.31640625 117.9140625 C-40.24138916 117.72666504 -41.16637207 117.53926758 -42.11938477 117.34619141 C-44.375 116.5625 -44.375 116.5625 -46.375 113.5625 C-46.51560769 106.7933946 -44.78062416 99.84619596 -43.45727539 93.23510742 C-43.26527054 92.25656799 -43.07326569 91.27802856 -42.8754425 90.26983643 C-42.2458966 87.06826293 -41.6095363 83.86809069 -40.97265625 80.66796875 C-40.53020048 78.42984793 -40.0880204 76.1916726 -39.64610291 73.95344543 C-38.72197516 69.27865138 -37.79444693 64.60454841 -36.86450195 59.9309082 C-35.67321509 53.94234309 -34.49058099 47.95210743 -33.31047916 41.96132946 C-32.40034473 37.34614332 -31.48559811 32.73188068 -30.5694561 28.11788368 C-30.1314496 25.9089732 -29.69489161 23.69977498 -29.25981331 21.49028587 C-28.65194183 18.40687596 -28.03785808 15.324767 -27.42211914 12.24291992 C-27.24386597 11.33218216 -27.06561279 10.4214444 -26.88195801 9.48310852 C-25.20524086 1.15573032 -25.20524086 1.15573032 -23.375 -2.4375 C-17.3911782 -5.4294109 -6.29633699 -1.31846373 0 0 Z " fill="#9428DB" transform="translate(118.375,41.4375)"/>
<path d="M0 0 C1.15628906 0.00607269 1.15628906 0.00607269 2.3359375 0.01226807 C3.12742188 0.01035461 3.91890625 0.00844116 4.734375 0.00646973 C6.4088574 0.00510789 8.08335035 0.00880425 9.7578125 0.01715088 C12.32576131 0.02785067 14.89301053 0.01725582 17.4609375 0.00445557 C19.08593905 0.00577716 20.71094016 0.00833956 22.3359375 0.01226807 C23.10679687 0.0082196 23.87765625 0.00417114 24.671875 0 C30.10601618 0.04797174 30.10601618 0.04797174 32.3359375 2.27789307 C32.59320641 4.35845852 32.59320641 4.35845852 32.60336304 6.97795105 C32.61189301 7.96923508 32.62042297 8.9605191 32.62921143 9.98184204 C32.62830505 11.0733255 32.62739868 12.16480896 32.62646484 13.28936768 C32.63318207 14.43576218 32.63989929 15.58215668 32.64682007 16.76329041 C32.66588443 20.56898278 32.66972844 24.37449961 32.671875 28.18023682 C32.67829672 30.81578139 32.6850246 33.45132524 32.69204712 36.08686829 C32.70484588 41.61759592 32.70781117 47.14827567 32.70654297 52.67901611 C32.70534108 59.07523823 32.72644952 65.47112316 32.7580303 71.86725992 C32.78731037 78.01609247 32.79451976 84.16476292 32.79332352 90.31366158 C32.79569025 92.93202657 32.80457352 95.55039383 32.81998825 98.16871452 C32.8394992 101.82510545 32.83386834 105.48062005 32.82177734 109.13702393 C32.83301636 110.22648315 32.84425537 111.31594238 32.85583496 112.43841553 C32.84744598 113.43251938 32.83905701 114.42662323 32.83041382 115.45085144 C32.83150335 116.315661 32.83259289 117.18047056 32.83371544 118.07148647 C32.3359375 120.27789307 32.3359375 120.27789307 30.51304054 122.05631351 C27.33982393 123.83681561 24.70412521 123.64950804 21.0859375 123.64117432 C20.39081055 123.64167282 19.69568359 123.64217133 18.97949219 123.64268494 C17.51364271 123.64035032 16.04778878 123.63065786 14.58203125 123.61407471 C12.34338383 123.59047158 10.10592788 123.59351919 7.8671875 123.60015869 C-3.51097062 123.5556928 -3.51097062 123.5556928 -7.6640625 121.27789307 C-7.71073965 105.79677736 -7.74603028 90.31566691 -7.76768684 74.83449745 C-7.77800869 67.64666011 -7.7920863 60.45886644 -7.81494141 53.27105713 C-7.83484757 47.0077017 -7.84777233 40.7443779 -7.85223949 34.48099172 C-7.8548516 31.16317198 -7.86205081 27.84546405 -7.87552261 24.527668 C-7.88995319 20.82798047 -7.89204398 17.12848292 -7.89111328 13.42877197 C-7.89830383 12.32322464 -7.90549438 11.21767731 -7.91290283 10.07862854 C-7.9101535 9.07459488 -7.90740417 8.07056122 -7.90457153 7.03610229 C-7.90641512 6.16039896 -7.90825871 5.28469563 -7.91015816 4.38245583 C-7.3486718 -0.41926754 -4.05487279 0.03579578 0 0 Z " fill="#7807D1" transform="translate(144.6640625,39.72210693359375)"/>
</svg>
