<?xml version="1.0" encoding="UTF-8"?>
<svg version="1.1" xmlns="http://www.w3.org/2000/svg" width="1200" height="480">
<path d="M0 0 C0.92256592 0.00161133 1.84513184 0.00322266 2.7956543 0.00488281 C10.43029508 0.14115604 16.73979063 1.37066328 23.8125 4.375 C24.54210937 4.66375 25.27171875 4.9525 26.0234375 5.25 C39.60875252 11.2640525 49.41860197 23.03352428 55.09619141 36.45898438 C60.8608869 51.87866065 60.03373016 68.49810552 53.34765625 83.4296875 C45.80914267 97.89289166 34.66229518 107.20609775 19.8125 113.375 C14.83134732 114.93326091 10.01318329 115.96364652 4.8125 116.375 C4.15894531 116.42914063 3.50539063 116.48328125 2.83203125 116.5390625 C-12.77029674 117.18306103 -27.07563814 111.5292365 -38.87109375 101.5703125 C-47.36356303 93.5218003 -52.56045625 84.40166662 -56.1875 73.375 C-64.58555072 73.30508494 -72.98347716 73.25198024 -81.3817482 73.21956348 C-85.28259915 73.20399477 -89.18324907 73.18292026 -93.08398438 73.14868164 C-96.85766285 73.11577051 -100.63114957 73.09808111 -104.40496063 73.09036827 C-105.83527387 73.08488109 -107.26557819 73.07416837 -108.69580841 73.05780983 C-119.82478768 72.93573485 -131.6201871 73.06211554 -140.52441406 80.61010742 C-147.00751893 87.4900788 -148.393344 95.92955174 -150 104.9375 C-152.90112165 119.68766559 -156.98653168 132.73408009 -168.1875 143.375 C-166.21198816 147.74138771 -163.28260106 151.27008278 -160.35546875 155.03515625 C-153.82038037 165.10272483 -151.65190338 175.50537924 -149.515625 187.16796875 C-147.84639408 195.69031995 -145.83077644 204.58812032 -138.25 209.8125 C-137.62222656 210.26496094 -136.99445313 210.71742188 -136.34765625 211.18359375 C-131.27865067 213.97933824 -125.99371522 214.82838347 -120.3125 215.5 C-119.27996094 215.62955078 -119.27996094 215.62955078 -118.2265625 215.76171875 C-116.54754725 215.97159566 -114.86760952 216.17407087 -113.1875 216.375 C-113.001875 215.1375 -112.81625 213.9 -112.625 212.625 C-109.75380676 200.07827887 -100.80701398 189.92800943 -90.609375 182.49609375 C-76.38509284 173.57236957 -61.69536031 171.09463491 -45.1875 173.375 C-32.56317925 176.3299395 -23.34828572 182.3708089 -14.1875 191.375 C-13.60871094 191.94089844 -13.02992188 192.50679687 -12.43359375 193.08984375 C-1.66906318 204.58512574 1.5862796 220.01724366 1.09375 235.26171875 C0.18973859 251.63562543 -7.55572292 264.38058057 -19.1875 275.375 C-33.51571303 287.71443898 -50.05905307 289.56735422 -68.1875 288.375 C-83.41414685 285.85493681 -96.19600214 276.84650087 -105.2578125 264.5703125 C-109.08960559 258.78254134 -113.1875 252.5172355 -113.1875 245.375 C-114.33605469 245.42140625 -115.48460937 245.4678125 -116.66796875 245.515625 C-126.56968813 245.79483295 -134.8880804 245.18561699 -144.1875 241.375 C-145.47333984 240.88386719 -145.47333984 240.88386719 -146.78515625 240.3828125 C-159.84732293 234.71080985 -170.22916682 222.67993553 -175.8125 209.8125 C-178.59329303 202.21530075 -179.90928845 194.27311844 -181.22509766 186.30834961 C-182.86154414 177.06795844 -185.99417874 170.90263003 -193.05078125 164.69921875 C-201.05375164 159.7394254 -208.49911379 160.00541308 -217.6875 160.1875 C-219.6365625 160.20780273 -219.6365625 160.20780273 -221.625 160.22851562 C-224.81293412 160.26367666 -227.99999599 160.31289336 -231.1875 160.375 C-231.5172583 161.18759277 -231.8470166 162.00018555 -232.18676758 162.83740234 C-232.62657959 163.90941895 -233.0663916 164.98143555 -233.51953125 166.0859375 C-233.95241455 167.14603027 -234.38529785 168.20612305 -234.83129883 169.29833984 C-240.68839984 182.58568223 -251.78909843 193.32756209 -265.30859375 198.58984375 C-281.82252685 204.26966652 -298.15066583 204.05319486 -314.1875 196.875 C-327.21826318 189.97535606 -338.73437182 177.59181916 -343.1875 163.375 C-343.1875 162.055 -343.1875 160.735 -343.1875 159.375 C-359.0275 159.87 -359.0275 159.87 -375.1875 160.375 C-376.8375 164.335 -378.4875 168.295 -380.1875 172.375 C-389.02777862 187.58850275 -401.347088 196.73019047 -418.1875 201.375 C-433.24799083 205.15263142 -448.83394817 201.93156779 -462.078125 194.390625 C-475.46489284 185.71277047 -485.08679234 173.24334924 -488.79272461 157.63061523 C-491.66005749 141.24762915 -488.95691574 125.33936477 -480.234375 111.23046875 C-470.71265283 97.9473029 -458.42828486 90.7384148 -442.7578125 86.7578125 C-426.25839397 84.30045229 -409.74115109 87.34901152 -396.1875 97.375 C-385.64672677 106.3941393 -380.33132374 115.51544065 -375.1875 128.375 C-359.3475 128.87 -359.3475 128.87 -343.1875 129.375 C-342.8575 127.395 -342.5275 125.415 -342.1875 123.375 C-336.53084618 108.58689072 -325.12595479 97.08594985 -310.828125 90.44140625 C-295.64461354 84.30960355 -279.43439801 84.65102488 -264.1875 90.375 C-247.10019361 98.01549666 -237.77463859 111.4738161 -231.1875 128.375 C-226.70855679 128.49212011 -222.23001286 128.5625608 -217.75 128.625 C-215.85991211 128.67527344 -215.85991211 128.67527344 -213.93164062 128.7265625 C-204.46762525 128.82540339 -197.17275989 127.51639241 -189.875 121.1875 C-189.26011719 120.67832031 -188.64523437 120.16914063 -188.01171875 119.64453125 C-182.5074274 112.79657991 -181.21680594 104.50156167 -179.75 96.0625 C-176.22935259 77.42863162 -169.73887675 64.1229286 -154.1875 52.375 C-141.19320608 44.40794964 -128.60018865 42.92053306 -113.70703125 42.86328125 C-112.04122115 42.84640344 -110.37542354 42.82824912 -108.7096405 42.80888367 C-104.36147977 42.76171379 -100.0133697 42.73169221 -95.66503906 42.70544434 C-91.21343991 42.67547067 -86.76201485 42.62899882 -82.31054688 42.58398438 C-73.60295081 42.49832767 -64.89533828 42.43081671 -56.1875 42.375 C-55.69721313 41.15937378 -55.69721313 41.15937378 -55.19702148 39.91918945 C-54.54068726 38.31370239 -54.54068726 38.31370239 -53.87109375 36.67578125 C-53.44111084 35.61786377 -53.01112793 34.55994629 -52.56811523 33.4699707 C-50.59573678 29.04842488 -48.09024355 25.23288795 -45.1875 21.375 C-44.73761719 20.76011719 -44.28773438 20.14523438 -43.82421875 19.51171875 C-33.34931473 6.20416463 -16.48930128 -0.03008173 0 0 Z M-20.1875 38.375 C-25.78832034 45.09598441 -28.56252771 51.48577314 -28.125 60.25 C-26.88453352 69.33746234 -22.61463155 75.97942033 -15.578125 81.74609375 C-8.59631391 86.50330817 -1.17989934 87.35788032 7.02734375 86.01171875 C14.66355647 84.03891863 20.96017097 78.65349355 25.296875 72.1484375 C28.83170623 65.30930751 30.09145899 58.35985823 28.1640625 50.84765625 C25.21528479 42.66920867 20.6729959 36.65343181 13 32.4375 C1.13023216 27.14009983 -10.87393152 29.18134871 -20.1875 38.375 Z M-454.25 126.625 C-459.24219859 133.92410698 -460.91086225 141.00885659 -459.76171875 149.76953125 C-458.88298208 153.75672418 -457.39077878 156.95689969 -455.1875 160.375 C-454.5275 161.40625 -453.8675 162.4375 -453.1875 163.5 C-448.4870803 168.71631942 -441.68241134 171.83794727 -434.83203125 172.890625 C-425.3191058 173.20288984 -417.80661668 170.6446366 -410.7578125 164.21875 C-405.64875226 158.22005241 -402.77812358 150.58202886 -402.91015625 142.71875 C-403.83445874 134.90774304 -407.1289237 127.47695899 -413.1875 122.375 C-426.78322077 113.43534799 -443.13079779 113.50107789 -454.25 126.625 Z M-310.25 126.625 C-315.24219859 133.92410698 -316.91086225 141.00885659 -315.76171875 149.76953125 C-314.88298208 153.75672418 -313.39077878 156.95689969 -311.1875 160.375 C-310.5275 161.40625 -309.8675 162.4375 -309.1875 163.5 C-304.4870803 168.71631942 -297.68241134 171.83794727 -290.83203125 172.890625 C-281.3191058 173.20288984 -273.80661668 170.6446366 -266.7578125 164.21875 C-261.64875226 158.22005241 -258.77812358 150.58202886 -258.91015625 142.71875 C-259.83445874 134.90774304 -263.1289237 127.47695899 -269.1875 122.375 C-282.78322077 113.43534799 -299.13079779 113.50107789 -310.25 126.625 Z M-79.1875 212.375 C-84.56732415 220.55681589 -86.28629999 227.56120793 -85.1875 237.375 C-82.52748782 245.89313061 -78.00898727 252.033948 -70.1875 256.375 C-62.62638417 259.88639198 -54.83710275 260.35577609 -46.92578125 257.58203125 C-44.90156241 256.63739579 -43.06396637 255.58455448 -41.1875 254.375 C-40.15625 253.715 -39.125 253.055 -38.0625 252.375 C-32.84618058 247.6745803 -29.72455273 240.86991134 -28.671875 234.01953125 C-28.35961016 224.5066058 -30.9178634 216.99411668 -37.34375 209.9453125 C-43.34244759 204.83625226 -50.98047114 201.96562358 -58.84375 202.09765625 C-66.65475696 203.02195874 -74.08554101 206.3164237 -79.1875 212.375 Z " fill="#EA4A70" transform="translate(573.1875,83.625)"/>
<path d="M0 0 C6.01749944 5.60293267 10.36064911 14.57171421 10.86328125 22.75390625 C11.13639925 34.23347419 10.48655244 43.5179393 2.34765625 52.34375 C-0.13736864 54.55266102 -2.84106227 56.21510713 -5.73828125 57.83203125 C-7.54463317 58.78596119 -7.54463317 58.78596119 -8.375 60.875 C-7.65054688 60.97039062 -6.92609375 61.06578125 -6.1796875 61.1640625 C0.99303179 62.98221697 6.5167877 69.19816033 10.5625 75.125 C16.63475112 85.46501251 17.97708026 96.23804759 15.5 107.8125 C12.48954325 118.81816977 6.61475095 126.62298508 -3.09765625 132.53125 C-19.97631101 141.60436086 -41.29164009 142.78998515 -59.8125 138.25 C-72.69630026 134.09724889 -82.66497661 127.76643198 -89.375 115.875 C-94.59964002 104.55494663 -94.61401066 93.65308682 -90.625 81.94921875 C-86.79188599 72.52215399 -80.04519623 64.77871546 -70.56640625 60.65234375 C-69.84324219 60.39582031 -69.12007812 60.13929688 -68.375 59.875 C-69.46167969 59.16537109 -69.46167969 59.16537109 -70.5703125 58.44140625 C-79.03009176 52.65491724 -84.64517908 46.92514787 -87.375 36.875 C-88.49479233 24.54426348 -87.21303615 13.58257401 -79.12109375 3.71484375 C-59.04937272 -17.43455358 -22.43652991 -17.38937101 0 0 Z M-55.375 17.875 C-58.89633903 23.63251783 -58.90979104 29.43098011 -57.375 35.875 C-55.41942141 41.16715856 -52.34957686 44.24140049 -47.375 46.875 C-41.12020652 49.3533144 -35.37476484 49.57808008 -29.1640625 46.93359375 C-24.32248592 44.20683222 -21.23945941 41.15057264 -19.375 35.875 C-17.69221874 29.49445438 -18.1688471 23.69641072 -21.375 17.875 C-25.88143394 12.56262951 -30.82336069 10.20385549 -37.75 9.5625 C-44.88256213 10.17737605 -50.36861092 12.63575561 -55.375 17.875 Z M-56.75 80.3125 C-61.26056781 85.74282046 -61.82701885 90.99512553 -61.68359375 97.87109375 C-60.95806769 104.93349295 -57.59566441 109.21143188 -52.25390625 113.6484375 C-45.77262494 117.87946106 -38.86738331 117.54532648 -31.375 116.875 C-25.16905629 115.24288567 -20.83881883 111.18104094 -17.375 105.875 C-14.54311351 99.92997801 -14.37201 93.72479995 -16.02734375 87.37109375 C-18.53867818 81.00114248 -22.54468733 76.77061392 -28.671875 73.73828125 C-39.07916447 70.41456597 -49.4329092 72.29520913 -56.75 80.3125 Z " fill="#0F122F" transform="translate(986.375,148.125)"/>
<path d="M0 0 C8.7707808 10.20567336 12.18018944 21.63586805 12.11352539 34.93310547 C12.11367142 35.7045137 12.11381744 36.47592194 12.1139679 37.27070618 C12.11327508 39.80289591 12.10551241 42.33501072 12.09765625 44.8671875 C12.09578983 46.6298112 12.09436698 48.39243541 12.09336853 50.15505981 C12.08956103 54.78118334 12.07974589 59.40727518 12.06866455 64.03338623 C12.05841238 68.75923229 12.05386277 73.48508351 12.04882812 78.2109375 C12.03812197 87.47397445 12.02053955 96.73697963 12 106 C2.1 106 -7.8 106 -18 106 C-18.03738281 101.13507813 -18.07476563 96.27015625 -18.11328125 91.2578125 C-18.14359018 88.15882009 -18.17475701 85.05988308 -18.20898438 81.9609375 C-18.26312079 77.05211324 -18.31423717 72.14339858 -18.34643555 67.234375 C-18.37262161 63.27249213 -18.4131294 59.31098151 -18.46318626 55.3493309 C-18.47975231 53.84487445 -18.49133002 52.34035377 -18.49761391 50.83581924 C-18.54468382 40.59330315 -18.67558505 31.4217273 -25 23 C-25 22.34 -25 21.68 -25 21 C-26.32258472 20.31225595 -27.65986503 19.65288627 -29 19 C-29.99 18.46375 -30.98 17.9275 -32 17.375 C-38.30915347 14.71565789 -46.00727286 15.05626941 -52.4375 17.1875 C-58.25678349 20.14818809 -61.84013755 24.33403975 -65 30 C-67.36149962 38.10512904 -67.34707193 46.16267885 -67.4140625 54.53515625 C-67.43280476 56.02446021 -67.45238037 57.51375388 -67.4727478 59.0030365 C-67.52375254 62.89417419 -67.56354611 66.78534619 -67.60089111 70.67663574 C-67.64822473 75.36086672 -67.70968495 80.04493171 -67.76873779 84.72902679 C-67.85656342 91.81928301 -67.92660352 98.90951368 -68 106 C-77.9 106 -87.8 106 -98 106 C-98 68.05 -98 30.1 -98 -9 C-88.76 -9 -79.52 -9 -70 -9 C-69.34 -4.71 -68.68 -0.42 -68 4 C-67.34 4 -66.68 4 -66 4 C-65.75121094 3.4121875 -65.50242187 2.824375 -65.24609375 2.21875 C-61.49620362 -4.45817036 -53.74721034 -8.0340431 -46.734375 -10.28125 C-31.16162225 -14.37465929 -11.85634202 -11.46195227 0 0 Z " fill="#0F122F" transform="translate(1135,180)"/>
<path d="M0 0 C8.7707808 10.20567336 12.18018944 21.63586805 12.11352539 34.93310547 C12.11367142 35.7045137 12.11381744 36.47592194 12.1139679 37.27070618 C12.11327508 39.80289591 12.10551241 42.33501072 12.09765625 44.8671875 C12.09578983 46.6298112 12.09436698 48.39243541 12.09336853 50.15505981 C12.08956103 54.78118334 12.07974589 59.40727518 12.06866455 64.03338623 C12.05841238 68.75923229 12.05386277 73.48508351 12.04882812 78.2109375 C12.03812197 87.47397445 12.02053955 96.73697963 12 106 C2.1 106 -7.8 106 -18 106 C-18.03738281 101.13507813 -18.07476563 96.27015625 -18.11328125 91.2578125 C-18.14359018 88.15882009 -18.17475701 85.05988308 -18.20898438 81.9609375 C-18.26312079 77.05211324 -18.31423717 72.14339858 -18.34643555 67.234375 C-18.37262161 63.27249213 -18.4131294 59.31098151 -18.46318626 55.3493309 C-18.47975231 53.84487445 -18.49133002 52.34035377 -18.49761391 50.83581924 C-18.54468382 40.59330315 -18.67558505 31.4217273 -25 23 C-25 22.34 -25 21.68 -25 21 C-26.32258472 20.31225595 -27.65986503 19.65288627 -29 19 C-29.99 18.46375 -30.98 17.9275 -32 17.375 C-38.30915347 14.71565789 -46.00727286 15.05626941 -52.4375 17.1875 C-58.25678349 20.14818809 -61.84013755 24.33403975 -65 30 C-67.36149962 38.10512904 -67.34707193 46.16267885 -67.4140625 54.53515625 C-67.43280476 56.02446021 -67.45238037 57.51375388 -67.4727478 59.0030365 C-67.52375254 62.89417419 -67.56354611 66.78534619 -67.60089111 70.67663574 C-67.64822473 75.36086672 -67.70968495 80.04493171 -67.76873779 84.72902679 C-67.85656342 91.81928301 -67.92660352 98.90951368 -68 106 C-77.9 106 -87.8 106 -98 106 C-98 68.05 -98 30.1 -98 -9 C-88.76 -9 -79.52 -9 -70 -9 C-69.34 -4.71 -68.68 -0.42 -68 4 C-67.34 4 -66.68 4 -66 4 C-65.75121094 3.4121875 -65.50242187 2.824375 -65.24609375 2.21875 C-61.49620362 -4.45817036 -53.74721034 -8.0340431 -46.734375 -10.28125 C-31.16162225 -14.37465929 -11.85634202 -11.46195227 0 0 Z " fill="#0F122F" transform="translate(847,180)"/>
</svg>
