<?xml version="1.0" encoding="UTF-8"?>
<svg version="1.1" xmlns="http://www.w3.org/2000/svg" width="522" height="305">
<path d="M0 0 C0.68578125 -0.020625 1.3715625 -0.04125 2.078125 -0.0625 C7.97686111 -0.10752852 11.88078985 1.4171696 16.3125 5.25 C19.40115012 8.91062236 19.391829 12.70649347 19.3515625 17.296875 C18.49871944 24.46075668 15.20065929 31.20447545 11.6875 37.4375 C9.61457788 41.3129631 9.92669635 44.61028248 10.10546875 48.9140625 C9.93859183 52.61007724 8.46065017 54.58983765 6 57.25 C2.60288868 59.16631921 -0.13535319 59.47083696 -4 59.25 C-3.67 60.24 -3.34 61.23 -3 62.25 C-2.49846914 66.01148148 -2.18502384 69.64710084 -3.94140625 73.1015625 C-6.49939591 76.35718571 -8.99397763 78.29618515 -13 79.25 C-14.6396875 79.064375 -14.6396875 79.064375 -16.3125 78.875 C-21.27911404 79.38007939 -23.23733607 81.42064459 -26.5234375 85.04296875 C-28.2966165 87.27557323 -28.2966165 87.27557323 -28.125 90.625 C-27.568125 92.419375 -27.568125 92.419375 -27 94.25 C-20.79356051 117.42368412 -26.51671243 144.96195442 -38.3125 165.48046875 C-40.38864751 168.85513941 -42.65723809 172.05572575 -45 175.25 C-45.48855469 175.97703125 -45.97710937 176.7040625 -46.48046875 177.453125 C-62.22897031 200.1753032 -87.85364295 213.9641444 -114.57080078 218.84814453 C-137.05606696 222.56781771 -159.92862392 218.8420662 -179.82495117 207.75341797 C-183.14524095 205.78851534 -183.14524095 205.78851534 -186.86108398 205.50073242 C-189.50439997 206.42669256 -191.9853755 207.55923856 -194.515625 208.76171875 C-195.59416748 209.26960937 -196.67270996 209.7775 -197.78393555 210.30078125 C-198.92773682 210.84089844 -200.07153809 211.38101563 -201.25 211.9375 C-249.12285408 234.24769043 -249.12285408 234.24769043 -270.71484375 228.53125 C-274.82934777 226.63106937 -277.33869638 224.45212093 -279 220.25 C-281.91104112 210.06135609 -276.737151 199.7208599 -272.08203125 190.83203125 C-264.88727342 178.09588277 -255.17574674 166.72019549 -245.3125 156 C-244.84618164 155.49098145 -244.37986328 154.98196289 -243.89941406 154.45751953 C-241.95543791 152.34217931 -240.00038304 150.25038304 -237.96875 148.21875 C-235.03792979 145.1773328 -233.65122798 143.06000298 -233.5625 138.875 C-233.59793141 135.4463063 -233.59793141 135.4463063 -235 134.25 C-237.86126544 119.73929672 -237.68144794 102.31314481 -233 88.25 C-232.64808594 87.05890625 -232.29617187 85.8678125 -231.93359375 84.640625 C-223.59788743 57.13844067 -205.46362448 35.05583829 -180.50366211 21.01782227 C-156.12524579 8.02333609 -127.33221983 5.70315653 -100.91796875 13.38671875 C-94.21738954 15.4754718 -87.77835997 18.07471325 -81.46484375 21.13671875 C-76.08664339 23.80019872 -76.08664339 23.80019872 -70.32543945 23.48657227 C-69.43042725 23.01791748 -68.53541504 22.5492627 -67.61328125 22.06640625 C-66.60185059 21.55400391 -65.59041992 21.04160156 -64.54833984 20.51367188 C-63.4805127 19.95228516 -62.41268555 19.39089844 -61.3125 18.8125 C-42.40765836 9.3092671 -21.52202336 0.16181972 0 0 Z M-37 14.375 C-37.89702637 14.67631836 -38.79405273 14.97763672 -39.71826172 15.28808594 C-45.96887819 17.43800753 -52.07573653 19.83668511 -58.125 22.5 C-58.87652344 22.82887207 -59.62804687 23.15774414 -60.40234375 23.49658203 C-63.82554239 25.05178754 -66.45394619 26.49347241 -69 29.25 C-68.28714844 29.81847656 -67.57429687 30.38695313 -66.83984375 30.97265625 C-56.94329452 38.95116633 -48.66383373 46.44049442 -43.10546875 57.98828125 C-41.75356752 60.75418518 -40.32575959 63.47215578 -38.875 66.1875 C-38.37742187 67.12464844 -37.87984375 68.06179687 -37.3671875 69.02734375 C-36.19374146 71.37293323 -36.19374146 71.37293323 -34 72.25 C-33.6451046 74.24628664 -33.31421071 76.24690671 -33 78.25 C-32.36710708 79.5996921 -31.70623678 80.93719696 -31 82.25 C-28.14484244 80.59957965 -25.88970488 78.98015374 -24 76.25 C-24.09641999 73.29165943 -24.75296048 70.73841004 -25.484375 67.875 C-26 65.25 -26 65.25 -25 61.75 C-22.49707437 58.62134296 -20.81288678 57.52096226 -17 56.25 C-13.98019096 56.02795522 -11.02084829 56.0687491 -8 56.25 C-8.5259375 55.0125 -8.5259375 55.0125 -9.0625 53.75 C-10.39646024 48.76988176 -9.87208622 44.79917512 -8.1875 39.875 C-6.61014096 37.71650868 -5.5560469 37.07898818 -3 36.25 C-0.66796188 36.1722654 1.66839059 36.16032272 4 36.25 C6.78245795 29.47531978 9.08310981 23.72735255 6.8125 16.4375 C4.41011735 12.21262018 2.55107575 10.76702525 -2 9.25 C-4.35180385 9.12742113 -6.7075343 9.07447846 -9.0625 9.0625 C-10.31160156 9.04832031 -11.56070313 9.03414062 -12.84765625 9.01953125 C-21.19179369 9.27515034 -29.14577587 11.72354546 -37 14.375 Z M-192 39.25 C-192.84175781 39.92675781 -193.68351562 40.60351562 -194.55078125 41.30078125 C-212.20182025 56.31651738 -225.70415697 80.41036447 -227.75 103.625 C-227.85969021 105.83218115 -227.94166463 108.04086498 -228 110.25 C-228.03996094 111.52746094 -228.07992187 112.80492187 -228.12109375 114.12109375 C-228.2346215 120.85929961 -228.09801017 126.82484385 -226 133.25 C-222.36101004 133.25 -221.9120832 132.58670965 -219.3125 130.1875 C-218.61769531 129.55328125 -217.92289063 128.9190625 -217.20703125 128.265625 C-216.47871094 127.60046875 -215.75039062 126.9353125 -215 126.25 C-212.82693935 124.40529656 -210.65094746 122.56435393 -208.46875 120.73046875 C-206.76523616 119.36093455 -206.76523616 119.36093455 -207 117.25 C-206.40614502 116.97599365 -205.81229004 116.7019873 -205.20043945 116.41967773 C-203.08443694 115.29488377 -201.55926314 114.13921485 -199.79296875 112.53515625 C-199.20580078 112.01373047 -198.61863281 111.49230469 -198.01367188 110.95507812 C-196.8046385 109.86759463 -195.59885172 108.77648985 -194.39648438 107.68164062 C-190.45990954 104.20011152 -186.94033234 102.06546144 -182 100.25 C-182.25 102.125 -182.25 102.125 -183 104.25 C-183.556875 104.51683594 -184.11375 104.78367187 -184.6875 105.05859375 C-187.83744893 106.68145595 -190.1991231 109.02266987 -192.75 111.4375 C-193.82228953 112.43687124 -194.89520665 113.43556952 -195.96875 114.43359375 C-196.74798828 115.1603833 -196.74798828 115.1603833 -197.54296875 115.90185547 C-201.30527693 119.38299919 -205.21088987 122.70501144 -209.08984375 126.0546875 C-212.86730748 129.33271003 -216.51050815 132.66080838 -220 136.25 C-220.928125 136.930625 -220.928125 136.930625 -221.875 137.625 C-223.29731589 139.34041263 -223.29731589 139.34041263 -222.9375 142.3125 C-220.915933 152.39927701 -215.46953652 160.70641945 -210 169.25 C-209.39671875 170.24902344 -208.7934375 171.24804688 -208.171875 172.27734375 C-203.8364696 179.39561072 -199.56618385 185.48204044 -192 189.25 C-190.31288577 190.8959651 -188.6454378 192.56237149 -187 194.25 C-184.24162128 196.50034505 -184.24162128 196.50034505 -181.41015625 196.203125 C-176.6270093 194.8662546 -172.69741395 192.51494132 -168.4375 190 C-167.07540405 189.20940186 -167.07540405 189.20940186 -165.68579102 188.40283203 C-157.95729148 183.88696107 -150.33480511 179.19890205 -142.75366211 174.44042969 C-141.92616455 173.92125977 -141.09866699 173.40208984 -140.24609375 172.8671875 C-139.52091553 172.40940918 -138.7957373 171.95163086 -138.04858398 171.47998047 C-136.07414 170.29451404 -134.07362573 169.24989328 -132 168.25 C-134.42169424 173.39841103 -137.94635542 175.55180301 -142.625 178.4375 C-143.37193115 178.90945801 -144.1188623 179.38141602 -144.88842773 179.86767578 C-151.54018506 184.0405908 -158.30127645 188.02914062 -165.09765625 191.9609375 C-169.12341229 194.29847326 -173.06698635 196.76028812 -177 199.25 C-166.59304474 204.611911 -154.66224228 209.02995004 -143 210.25 C-141.52660156 210.41242188 -141.52660156 210.41242188 -140.0234375 210.578125 C-137.0161591 210.8674328 -134.01612384 211.07858295 -131 211.25 C-129.80310547 211.33121094 -129.80310547 211.33121094 -128.58203125 211.4140625 C-106.31301642 212.23469621 -84.79065857 202.12765933 -68 188.25 C-67.43152344 187.8271875 -66.86304688 187.404375 -66.27734375 186.96875 C-49.85016968 174.23089398 -36.98733958 149.67857469 -34 129.25 C-32.97471634 118.117989 -32.26170977 107.18053044 -35 96.25 C-38.00577283 95.92536881 -38.00577283 95.92536881 -39.76171875 97.75390625 C-40.39722656 98.43324219 -41.03273438 99.11257812 -41.6875 99.8125 C-44.85039755 103.08958158 -48.07375791 106.15889845 -51.52734375 109.125 C-53.57315258 110.88316746 -55.60348878 112.65600266 -57.62890625 114.4375 C-58.96086372 115.6042509 -60.2928957 116.77091674 -61.625 117.9375 C-62.25865479 118.49655029 -62.89230957 119.05560059 -63.54516602 119.6315918 C-72.45232424 127.40077475 -72.45232424 127.40077475 -78 129.25 C-76.66240755 126.20763286 -75.29407555 124.37375002 -72.75 122.25 C-72.03328125 121.64027344 -71.3165625 121.03054687 -70.578125 120.40234375 C-69.22444993 119.27223017 -67.87047284 118.14247203 -66.51367188 117.01611328 C-62.28200124 113.49448063 -58.11981479 109.90183583 -54 106.25 C-53.26394531 105.60224609 -52.52789062 104.95449219 -51.76953125 104.28710938 C-49.48050962 102.24486682 -47.23721403 100.16124569 -45 98.0625 C-44.27490234 97.4219165 -43.54980469 96.78133301 -42.80273438 96.12133789 C-39.1357169 92.70281281 -39.1357169 92.70281281 -37.89038086 88.05151367 C-38.36757782 85.64116356 -39.07759708 83.52633214 -40 81.25 C-40.26312988 80.55285889 -40.52625977 79.85571777 -40.79736328 79.13745117 C-41.64700485 77.02931233 -42.58000433 74.98692455 -43.5625 72.9375 C-43.91183594 72.20402344 -44.26117188 71.47054687 -44.62109375 70.71484375 C-47.98665584 63.88824262 -52.10876201 58.09520284 -57 52.25 C-57.62390625 51.46367188 -58.2478125 50.67734375 -58.890625 49.8671875 C-62.71199988 45.25905897 -66.99669219 41.33560549 -71.625 37.5625 C-72.43275879 36.87389893 -72.43275879 36.87389893 -73.25683594 36.17138672 C-75.02232329 34.71832738 -75.02232329 34.71832738 -78 33.25 C-82.29834757 34.30943625 -85.89812744 36.16430278 -89.7109375 38.375 C-91.32053345 39.30481689 -91.32053345 39.30481689 -92.96264648 40.25341797 C-94.08872314 40.91229004 -95.2147998 41.57116211 -96.375 42.25 C-97.54163058 42.92744842 -98.70837934 43.60469337 -99.87524414 44.28173828 C-107.12759918 48.50307458 -114.31090052 52.82404604 -121.36669922 57.3671875 C-123.90897289 58.99741253 -126.11841014 60.28947005 -129 61.25 C-127.66905371 58.1351158 -126.4718753 56.57357951 -123.61328125 54.76953125 C-122.92959473 54.33213623 -122.2459082 53.89474121 -121.54150391 53.4440918 C-120.80593262 52.9881665 -120.07036133 52.53224121 -119.3125 52.0625 C-118.17433838 51.34284058 -118.17433838 51.34284058 -117.01318359 50.60864258 C-114.68339607 49.14252083 -112.34405437 47.69318452 -110 46.25 C-109.30986816 45.82428711 -108.61973633 45.39857422 -107.90869141 44.95996094 C-100.06972933 40.14578427 -92.12959698 35.5598695 -84 31.25 C-86.64980666 28.00060205 -90.07185414 26.72953284 -93.875 25.25 C-94.5462793 24.98799805 -95.21755859 24.72599609 -95.90917969 24.45605469 C-128.91397031 11.93699617 -164.4420317 17.02852178 -192 39.25 Z M-234.9375 151.875 C-239.96929414 157.0535548 -244.3176619 162.79916442 -248.68945312 168.53369141 C-249.8508901 170.05472381 -251.0260242 171.56527571 -252.203125 173.07421875 C-256.06079807 178.15450081 -259.34570897 183.39839632 -262.375 189 C-262.87616333 189.92123657 -262.87616333 189.92123657 -263.38745117 190.86108398 C-266.92409426 197.61302267 -268.60863724 203.70289825 -268 211.25 C-266.11271007 215.86337539 -263.29172387 217.84425859 -259 220.25 C-256.13396646 220.70548933 -253.79374063 220.91834348 -250.9375 220.875 C-250.15729492 220.865896 -249.37708984 220.85679199 -248.57324219 220.84741211 C-229.17198213 220.11228324 -209.0202637 211.08259154 -192 202.25 C-193.51732987 198.38297645 -195.79723303 196.6141346 -199.0625 194.125 C-213.72785827 182.39271338 -223.3172409 166.65777249 -230 149.25 C-232.40802857 149.02788967 -232.40802857 149.02788967 -234.9375 151.875 Z " fill="#44BAA3" transform="translate(402,37.75)"/>
<path d="M0 0 C0.68578125 -0.020625 1.3715625 -0.04125 2.078125 -0.0625 C7.97686111 -0.10752852 11.88078985 1.4171696 16.3125 5.25 C19.40115012 8.91062236 19.391829 12.70649347 19.3515625 17.296875 C18.49871944 24.46075668 15.20065929 31.20447545 11.6875 37.4375 C9.61457788 41.3129631 9.92669635 44.61028248 10.10546875 48.9140625 C9.93859183 52.61007724 8.46065017 54.58983765 6 57.25 C2.60288868 59.16631921 -0.13535319 59.47083696 -4 59.25 C-3.67 60.24 -3.34 61.23 -3 62.25 C-2.49846914 66.01148148 -2.18502384 69.64710084 -3.94140625 73.1015625 C-6.49939591 76.35718571 -8.99397763 78.29618515 -13 79.25 C-14.60875 79.0334375 -14.60875 79.0334375 -16.25 78.8125 C-22.22707929 79.50982592 -25.17090093 83.87388678 -29 88.25 C-31 85.25 -31 85.25 -30.9375 83.375 C-30 81.25 -30 81.25 -27.3125 79.1875 C-24.68152982 76.5349135 -24.68152982 76.5349135 -25.22265625 73.6953125 C-25.65952995 71.76469698 -26.10624381 69.83628324 -26.5625 67.91015625 C-27 65.25 -27 65.25 -25.875 61.75 C-23.53950684 58.63600912 -21.99536688 56.66199883 -18.0703125 55.8515625 C-15.03899368 55.44072442 -12.0579596 55.25 -9 55.25 C-9.350625 54.59 -9.70125 53.93 -10.0625 53.25 C-11.61599613 48.27881238 -10.82914366 44.06621945 -8.6875 39.375 C-6.81130789 37.01238771 -5.9050709 36.05696414 -3 35.25 C0.75 35.625 0.75 35.625 4 36.25 C7.29012759 25.21266643 7.29012759 25.21266643 5 14.25 C1.99643814 11.14954905 -0.9202941 10.30627558 -5.22265625 10.08203125 C-6.48980469 10.07558594 -7.75695312 10.06914063 -9.0625 10.0625 C-10.31160156 10.04832031 -11.56070313 10.03414062 -12.84765625 10.01953125 C-21.19266443 10.27517701 -29.14450555 12.7253678 -37 15.375 C-37.89920166 15.67486816 -38.79840332 15.97473633 -39.72485352 16.28369141 C-46.72201781 18.67734491 -53.46216901 21.49554459 -60.13867188 24.67236328 C-64.10945911 26.53915625 -67.57936274 27.76573614 -72 28.25 C-72.66 27.26 -73.32 26.27 -74 25.25 C-52.02644091 12.73685906 -25.76515804 0.19372299 0 0 Z " fill="#FEC107" transform="translate(402,37.75)"/>
<path d="M0 0 C0.66 0.33 1.32 0.66 2 1 C2.4375 3.5625 2.4375 3.5625 2 7 C0.57198167 8.78502291 -1.05542695 10.22227324 -2.7421875 11.765625 C-7.2049527 16.18206392 -10.88871623 21.29822271 -14.68945312 26.28369141 C-15.8508901 27.80472381 -17.0260242 29.31527571 -18.203125 30.82421875 C-22.06079807 35.90450081 -25.34570897 41.14839632 -28.375 46.75 C-28.70910889 47.36415771 -29.04321777 47.97831543 -29.38745117 48.61108398 C-32.92409426 55.36302267 -34.60863724 61.45289825 -34 69 C-32.20533361 73.25052565 -30.10920978 75.00934087 -26 77 C-3.96237647 80.01149728 19.23434685 70.05054629 38.48828125 60.21875 C41 59 41 59 43.25 59.1875 C45 60 45 60 47 62 C-12.55229162 92.94299042 -12.55229162 92.94299042 -37.71484375 86.28125 C-41.82934777 84.38106937 -44.33869638 82.20212093 -46 78 C-48.91104112 67.81135609 -43.737151 57.4708599 -39.08203125 48.58203125 C-31.21818213 34.66145848 -20.41917829 22.48131381 -9.59765625 10.81640625 C-6.32773494 7.27112315 -3.14827809 3.65329198 0 0 Z " fill="#FEC107" transform="translate(169,180)"/>
<path d="M0 0 C3.19698959 2.4204779 5.51923324 5.09161285 6.51171875 9.03125 C6.79340098 14.08210386 5.27382475 17.2837665 2 21 C-1.39711132 22.91631921 -4.13535319 23.22083696 -8 23 C-7.67 23.99 -7.34 24.98 -7 26 C-6.49846914 29.76148148 -6.18502384 33.39710084 -7.94140625 36.8515625 C-10.49939591 40.10718571 -12.99397763 42.04618515 -17 43 C-18.0725 42.855625 -19.145 42.71125 -20.25 42.5625 C-26.22707929 43.25982592 -29.17090093 47.62388678 -33 52 C-35 49 -35 49 -34.9375 47.125 C-34 45 -34 45 -31.3125 42.9375 C-28.68152982 40.2849135 -28.68152982 40.2849135 -29.22265625 37.4453125 C-29.65952995 35.51469698 -30.10624381 33.58628324 -30.5625 31.66015625 C-31 29 -31 29 -29.875 25.5 C-27.53950684 22.38600912 -25.99536688 20.41199883 -22.0703125 19.6015625 C-19.03899368 19.19072442 -16.0579596 19 -13 19 C-13.350625 18.34 -13.70125 17.68 -14.0625 17 C-15.61599613 12.02881238 -14.82914366 7.81621945 -12.6875 3.125 C-9.00182469 -1.51622076 -5.62542849 -1.64883249 0 0 Z " fill="#FC7851" transform="translate(406,74)"/>
<path d="M0 0 C-0.34196405 2.80410523 -0.85670198 3.8647751 -2.94140625 5.83203125 C-4.23884766 6.81236328 -4.23884766 6.81236328 -5.5625 7.8125 C-10.78939018 11.92670134 -15.66379547 16.30866193 -20.5 20.875 C-21.19424072 21.52960205 -21.88848145 22.1842041 -22.60375977 22.85864258 C-26.16813167 26.20888133 -26.16813167 26.20888133 -29.58789062 29.70361328 C-31 31 -31 31 -33 31 C-33.495 32.485 -33.495 32.485 -34 34 C-35.84765625 35.60546875 -35.84765625 35.60546875 -38.0625 37.1875 C-38.79597656 37.71730469 -39.52945313 38.24710938 -40.28515625 38.79296875 C-40.85105469 39.19128906 -41.41695312 39.58960938 -42 40 C-43 39 -43 39 -43.0625 36.4375 C-43.041875 35.633125 -43.02125 34.82875 -43 34 C-42.360625 33.731875 -41.72125 33.46375 -41.0625 33.1875 C-38.66868314 32.11332248 -38.66868314 32.11332248 -38 29 C-36.2578125 27.28125 -36.2578125 27.28125 -34.125 25.5 C-31.14615469 22.99734679 -31.14615469 22.99734679 -28.3671875 20.28125 C-27 19 -27 19 -25 19 C-25 18.34 -25 17.68 -25 17 C-23.41005885 15.54082037 -21.75012428 14.15750645 -20.0625 12.8125 C-19.06476563 12.01457031 -18.06703125 11.21664062 -17.0390625 10.39453125 C-16.03617188 9.60433594 -15.03328125 8.81414062 -14 8 C-13.12085938 7.30261719 -12.24171875 6.60523438 -11.3359375 5.88671875 C-3.85261387 0 -3.85261387 0 0 0 Z " fill="#FEC207" transform="translate(220,138)"/>
<path d="M0 0 C0.72445312 0.37769531 1.44890625 0.75539063 2.1953125 1.14453125 C-0.10724376 3.67818009 -2.46476324 5.21971105 -5.4609375 6.859375 C-6.39244629 7.37532227 -7.32395508 7.89126953 -8.28369141 8.42285156 C-9.28062012 8.97038086 -10.27754883 9.51791016 -11.3046875 10.08203125 C-20.00169295 14.90867034 -28.48315986 19.95390454 -36.77539062 25.44897461 C-43.38887369 29.76054744 -43.38887369 29.76054744 -47.8046875 30.14453125 C-46.66675322 25.38745259 -44.26527637 23.73953148 -40.34619141 21.25073242 C-39.61062012 20.80318604 -38.87504883 20.35563965 -38.1171875 19.89453125 C-36.97902588 19.1816394 -36.97902588 19.1816394 -35.81787109 18.4543457 C-33.48916698 17.00248136 -31.14881688 15.57132765 -28.8046875 14.14453125 C-27.76948975 13.50813721 -27.76948975 13.50813721 -26.71337891 12.85888672 C-23.00047183 10.57774829 -19.26584905 8.33950954 -15.50195312 6.14355469 C-13.85737371 5.17554275 -12.22911252 4.17997193 -10.6015625 3.18359375 C-9.63734375 2.61382812 -8.673125 2.0440625 -7.6796875 1.45703125 C-6.85210937 0.95816406 -6.02453125 0.45929688 -5.171875 -0.0546875 C-2.8046875 -0.85546875 -2.8046875 -0.85546875 0 0 Z " fill="#FEC107" transform="translate(320.8046875,68.85546875)"/>
<path d="M0 0 C-0.37264422 2.63803307 -0.80940534 3.81080737 -2.72583008 5.71313477 C-8.19953169 9.79969414 -13.79269979 13.48785623 -19.6875 16.9375 C-20.55383057 17.44821045 -21.42016113 17.9589209 -22.31274414 18.48510742 C-24.05399257 19.50989209 -25.79672035 20.53216785 -27.54101562 21.55175781 C-29.78661245 22.87432338 -32.01289718 24.22338843 -34.234375 25.5859375 C-35.46846719 26.32859515 -36.70282209 27.07081652 -37.9375 27.8125 C-39.52884766 28.78123047 -39.52884766 28.78123047 -41.15234375 29.76953125 C-44.35856519 31.15493558 -45.75859734 31.22349904 -49 30 C-49.33 29.34 -49.66 28.68 -50 28 C-49.35264893 27.64397705 -48.70529785 27.2879541 -48.03833008 26.92114258 C-33.69602478 19.01333595 -19.5920672 10.85593461 -5.75805664 2.0847168 C-2.37924826 0 -2.37924826 0 0 0 Z " fill="#FEC107" transform="translate(270,206)"/>
<path d="M0 0 C0.77734375 2.1953125 0.77734375 2.1953125 1 5 C-0.80859375 7.4296875 -0.80859375 7.4296875 -3.4375 9.875 C-4.83742188 11.19177734 -4.83742188 11.19177734 -6.265625 12.53515625 C-7.16796875 13.34855469 -8.0703125 14.16195312 -9 15 C-9.63421875 15.57621094 -10.2684375 16.15242188 -10.921875 16.74609375 C-12.13696065 17.82407902 -13.36293947 18.88986953 -14.59765625 19.9453125 C-16.61992799 21.67493028 -18.62312167 23.42220733 -20.62109375 25.1796875 C-21.95567465 26.34902055 -23.29031064 27.51829075 -24.625 28.6875 C-25.57572388 29.52631714 -25.57572388 29.52631714 -26.5456543 30.38208008 C-36.42624473 39 -36.42624473 39 -41 39 C-40.47647311 34.98328506 -38.62345231 33.40895161 -35.625 30.8125 C-34.71105469 30.01457031 -33.79710937 29.21664062 -32.85546875 28.39453125 C-30.25226298 26.21154201 -27.60480498 24.10361725 -24.9375 22 C-18.71427101 17.00174568 -13.20992413 11.31630162 -7.66186523 5.58789062 C-6.6052771 4.50604492 -6.6052771 4.50604492 -5.52734375 3.40234375 C-4.89562256 2.74741943 -4.26390137 2.09249512 -3.61303711 1.41772461 C-2 0 -2 0 0 0 Z " fill="#FEC107" transform="translate(365,128)"/>
<path d="M0 0 C1.32 0.66 2.64 1.32 4 2 C2.59155282 5.21524305 0.89655214 7.32183868 -1.625 9.75 C-2.57246094 10.67039062 -2.57246094 10.67039062 -3.5390625 11.609375 C-4.02117187 12.06828125 -4.50328125 12.5271875 -5 13 C-7 10 -7 10 -6.81640625 8.015625 C-5.87081356 5.68105166 -4.7692545 4.464834 -2.9375 2.75 C-2.38964844 2.22921875 -1.84179688 1.7084375 -1.27734375 1.171875 C-0.64505859 0.59179688 -0.64505859 0.59179688 0 0 Z " fill="#FEC007" transform="translate(378,113)"/>
</svg>
