<?xml version="1.0" encoding="UTF-8"?>
<svg version="1.1" xmlns="http://www.w3.org/2000/svg" width="800" height="156">
<path d="M0 0 C2.55287566 2.00106968 3.84010391 3.19650236 4.48101807 6.41717529 C4.4676944 7.76286591 4.4676944 7.76286591 4.45410156 9.13574219 C4.45379944 10.15649841 4.45349731 11.17725464 4.45318604 12.22894287 C4.43254089 13.32386047 4.41189575 14.41877808 4.390625 15.546875 C4.38496521 16.6732135 4.37930542 17.799552 4.37347412 18.96002197 C4.35108545 22.55711382 4.30088213 26.15320926 4.25 29.75 C4.22993833 32.1887877 4.21168698 34.62759101 4.1953125 37.06640625 C4.15121244 43.04461074 4.08427463 49.02223419 4 55 C4.81352936 54.99111755 5.62705872 54.98223511 6.46524048 54.9730835 C14.14516535 54.89281838 21.82488584 54.83197542 29.50512123 54.79275131 C33.45330373 54.77190753 37.40113863 54.74364951 41.34912109 54.69824219 C45.16169001 54.65466848 48.97392532 54.63083876 52.78672409 54.62049103 C54.23876571 54.61312019 55.69078979 54.59872644 57.14268875 54.57707977 C59.18227333 54.54789024 61.22049289 54.54405014 63.26025391 54.54589844 C64.99899277 54.53257477 64.99899277 54.53257477 66.77285767 54.51898193 C71.44712245 55.21569921 74.4620294 57.51506287 77.8125 60.75 C79.54607649 64.03467124 80.28817217 67.32267258 80 71 C77.97527291 77.08880025 74.5873932 81.30182192 70.4375 86.125 C69.16499588 87.63531262 67.89417262 89.14704297 66.625 90.66015625 C66.00367188 91.3989502 65.38234375 92.13774414 64.7421875 92.89892578 C62.39386908 95.73099253 60.1619609 98.63191911 57.9375 101.5625 C54.21764161 106.45512162 50.39145782 111.24289711 46.5 116 C42.59088803 120.77969281 38.74367778 125.58946161 35 130.5 C31.0842308 135.63300667 27.07013781 140.67603076 23 145.6875 C22.43539062 146.38359375 21.87078125 147.0796875 21.2890625 147.796875 C15.46708085 154.93945248 15.46708085 154.93945248 11.625 155.4375 C8 155 8 155 5.81152344 153.1730957 C3.12284334 148.46355726 3.39689466 144.13068215 3.390625 138.79296875 C3.37408875 137.71243729 3.35755249 136.63190582 3.34051514 135.51863098 C3.29201509 132.07486294 3.27065893 128.63153659 3.25 125.1875 C3.22184212 122.84958713 3.19191496 120.51169485 3.16015625 118.17382812 C3.08625558 112.44929898 3.03462474 106.72489417 3 101 C1.79516716 100.99120064 1.79516716 100.99120064 0.56599426 100.98222351 C-7.01147135 100.92426883 -14.58860919 100.85217659 -22.16578197 100.76428509 C-26.0611024 100.71959777 -29.95631864 100.68033827 -33.85180664 100.65356445 C-37.61268221 100.62751476 -41.3731565 100.5871012 -45.13378334 100.53681374 C-46.56700961 100.52015616 -48.00030528 100.50863495 -49.43361473 100.50238609 C-51.44438081 100.49273389 -53.45501962 100.46296348 -55.46557617 100.43237305 C-56.60919113 100.42126999 -57.75280609 100.41016693 -58.93107605 100.39872742 C-63.38347038 99.82025375 -65.97602585 97.88559927 -69.3125 95 C-71.83082891 90.52297082 -71.94660874 86.01841839 -71 81 C-68.17876533 76.07955281 -64.48072865 71.79831065 -60.875 67.4375 C-56.83725399 62.51452108 -52.8576376 57.56552085 -49 52.5 C-45.31923764 47.67160091 -41.53554229 42.94587735 -37.6875 38.25 C-33.11385856 32.66682158 -28.67126461 27.00238322 -24.3125 21.25 C-7.61080178 -0.76108018 -7.61080178 -0.76108018 0 0 Z " fill="#32B379" transform="translate(71,0)"/>
<path d="M0 0 C2.16693115 1.44036865 2.16693115 1.44036865 4 4 C4.57949974 7.08859568 4.50512741 10.13258539 4.45410156 13.26660156 C4.45468567 14.20352844 4.45526978 15.14045532 4.45587158 16.10577393 C4.45308596 19.20110181 4.42197092 22.29546545 4.390625 25.390625 C4.38316432 27.53724644 4.37747057 29.68387469 4.37347412 31.83050537 C4.35820425 37.47939876 4.31891038 43.12788053 4.2746582 48.77661133 C4.23373492 54.54112174 4.21546937 60.30569869 4.1953125 66.0703125 C4.15241776 77.38038915 4.08414974 88.69016034 4 100 C-4.51894615 100.06957011 -13.03777322 100.12284666 -21.5569334 100.15543652 C-25.51291134 100.17107957 -29.46869463 100.1922927 -33.42456055 100.22631836 C-37.24359355 100.25896078 -41.06243956 100.27686325 -44.88160133 100.28463173 C-46.33723709 100.29016651 -47.79286285 100.30097472 -49.24841881 100.31719017 C-51.29042903 100.33903021 -53.33167071 100.34196431 -55.3737793 100.34057617 C-56.53515915 100.34723801 -57.696539 100.35389984 -58.89311218 100.36076355 C-63.3919059 99.83837559 -65.95108636 97.90716855 -69.3125 95 C-71.83082891 90.52297082 -71.94660874 86.01841839 -71 81 C-68.17876533 76.07955281 -64.48072865 71.79831065 -60.875 67.4375 C-56.83725399 62.51452108 -52.8576376 57.56552085 -49 52.5 C-45.31923764 47.67160091 -41.53554229 42.94587735 -37.6875 38.25 C-33.11385856 32.66682158 -28.67126461 27.00238322 -24.3125 21.25 C-7.61080178 -0.76108018 -7.61080178 -0.76108018 0 0 Z " fill="#3DCE8E" transform="translate(71,0)"/>
<path d="M0 0 C6.27 0 12.54 0 19 0 C19.33 11.88 19.66 23.76 20 36 C23.96 33.525 23.96 33.525 28 31 C37.45346653 28.16953731 47.2863872 29.70695174 56 34 C63.36929775 38.72747403 67.6922907 46.42293661 69.625 54.85180664 C71.80715884 67.35233765 70.47495988 79.67854147 63.3125 90.3125 C57.92404972 96.95598173 50.46062622 101.40404333 41.921875 102.3359375 C34.11505958 102.43208055 26.24298002 101.91587804 20.2265625 96.36328125 C19.82179688 95.91339844 19.41703125 95.46351562 19 95 C18.67 96.65 18.34 98.3 18 100 C12.06 100 6.12 100 0 100 C0 67 0 34 0 0 Z M22.125 52.75 C18.26176978 58.65846975 17.55633013 63.69902562 18.46484375 70.5703125 C19.58671153 75.66375598 21.75861432 78.92789418 25.75 82.375 C31.09148169 85.04574084 34.94009495 85.62844561 40.6875 83.875 C45.13706587 81.35637781 48.04935564 78.9465575 50.3125 74.3125 C51.81532209 67.07162991 51.87778968 60.50467947 48 54 C44.91589265 50.39371575 41.80885676 47.80641964 37.0625 46.9375 C30.9415849 46.6290818 26.50469266 48.56072876 22.125 52.75 Z " fill="#1E1E1E" transform="translate(516,11)"/>
<path d="M0 0 C7.74500257 5.3108589 12.19815815 12.68885183 14.33203125 21.7578125 C16.32126446 34.58836673 14.49803436 45.58275805 7.52734375 56.51953125 C2.81962586 62.68642867 -3.60607785 66.37209348 -11.19921875 67.78125 C-19.6729571 68.64352739 -26.6368033 67.80484283 -34.19921875 63.78125 C-34.69421875 63.28625 -34.69421875 63.28625 -35.19921875 62.78125 C-35.2242749 63.65450928 -35.24933105 64.52776855 -35.27514648 65.42749023 C-35.37009584 68.65727552 -35.46933904 71.88689154 -35.5715332 75.11645508 C-35.61493309 76.51614199 -35.65660439 77.91588359 -35.6965332 79.31567383 C-35.7541132 81.32386495 -35.81835875 83.33186149 -35.8828125 85.33984375 C-35.91947021 86.54954834 -35.95612793 87.75925293 -35.99389648 89.00561523 C-36.19921875 91.78125 -36.19921875 91.78125 -37.19921875 92.78125 C-43.46921875 92.78125 -49.73921875 92.78125 -56.19921875 92.78125 C-56.19921875 61.43125 -56.19921875 30.08125 -56.19921875 -2.21875 C-49.92921875 -2.21875 -43.65921875 -2.21875 -37.19921875 -2.21875 C-36.86921875 -0.56875 -36.53921875 1.08125 -36.19921875 2.78125 C-35.58046875 2.183125 -34.96171875 1.585 -34.32421875 0.96875 C-24.03670289 -6.2325111 -10.80873204 -5.989919 0 0 Z M-32.19921875 17.78125 C-36.21694971 23.06773811 -37.44214779 28.15131163 -37.19921875 34.78125 C-36.40368815 39.6079789 -35.04376841 43.43170611 -31.32421875 46.71875 C-26.11659076 50.15578448 -22.68232907 51.340676 -16.48046875 50.44140625 C-11.75205826 49.07308198 -8.54683004 46.10719832 -6.1015625 41.88671875 C-3.5052796 35.7643214 -3.33285182 29.91159865 -5.32421875 23.59375 C-7.28484877 18.82819952 -10.59560786 16.08305544 -15.19921875 13.78125 C-22.01777001 13.02086311 -26.74499913 13.5269587 -32.19921875 17.78125 Z " fill="#1E1E1E" transform="translate(413.19921875,45.21875)"/>
<path d="M0 0 C7.39107852 4.53075401 11.79183393 10.60994849 14.20703125 18.890625 C15.69208169 25.36339657 15.5234375 30.68977067 15.5234375 37.546875 C-0.6465625 37.546875 -16.8165625 37.546875 -33.4765625 37.546875 C-29.65792405 46.74484562 -29.65792405 46.74484562 -22.515625 50.9921875 C-16.65797226 52.58564859 -12.40384099 51.57732209 -7.2109375 48.76953125 C-4.82918188 47.09050083 -3.64895938 45.18476798 -2.4765625 42.546875 C3.57144821 43.09669416 8.82944856 44.45117074 14.5234375 46.546875 C13.3937645 53.97044041 8.92225217 58.55732531 3.5234375 63.546875 C-4.20170996 69.21907973 -14.50958483 70.24850873 -23.78515625 69.07421875 C-32.68496736 67.33042412 -39.50464798 63.41575692 -45.4765625 56.546875 C-52.2175037 46.1888434 -54.30784275 34.49492702 -51.82421875 22.359375 C-48.82815005 12.27818245 -43.59494811 5.4121105 -34.78515625 -0.26171875 C-24.19421491 -5.72743298 -10.58816186 -5.16354195 0 0 Z M-29.4765625 16.546875 C-31.66358612 19.53580729 -32.4765625 20.82631954 -32.4765625 24.546875 C-22.9065625 24.546875 -13.3365625 24.546875 -3.4765625 24.546875 C-5.36641128 18.87732867 -6.22607196 17.26605422 -10.4765625 13.546875 C-16.69503504 10.43763873 -24.55339064 11.99294103 -29.4765625 16.546875 Z " fill="#1E1E1E" transform="translate(784.4765625,44.453125)"/>
<path d="M0 0 C0.97839844 0.5878125 0.97839844 0.5878125 1.9765625 1.1875 C2.56695313 1.538125 3.15734375 1.88875 3.765625 2.25 C9.10048837 6.03433658 11.3925778 11.95557383 12.51806641 18.18432617 C13.17597978 23.01861893 13.10072883 27.84461912 13.07421875 32.71484375 C13.0728038 33.70376114 13.07138885 34.69267853 13.06993103 35.71156311 C13.06436338 38.84940704 13.0518169 41.98717787 13.0390625 45.125 C13.03404332 47.26106667 13.02948114 49.39713447 13.02539062 51.53320312 C13.01440455 56.75132996 12.99716234 61.96940262 12.9765625 67.1875 C7.0365625 67.1875 1.0965625 67.1875 -5.0234375 67.1875 C-5.3534375 65.5375 -5.6834375 63.8875 -6.0234375 62.1875 C-6.9103125 62.97125 -7.7971875 63.755 -8.7109375 64.5625 C-14.47818231 69.65913495 -20.80756429 69.77993658 -28.21484375 69.5625 C-34.44199306 68.9493653 -39.37376678 66.99701165 -43.70703125 62.40234375 C-48.46115773 56.05901918 -48.88974541 49.86746561 -48.0234375 42.1875 C-46.05301202 37.11017958 -42.72407216 32.94656817 -38.0234375 30.1875 C-32.94119383 28.28515558 -27.73520692 27.26058713 -22.375 26.51171875 C-21.56506592 26.39449463 -20.75513184 26.27727051 -19.9206543 26.15649414 C-18.29741115 25.92948177 -16.67103001 25.723758 -15.04223633 25.54077148 C-12.49619012 25.24003409 -12.49619012 25.24003409 -9.0234375 24.1875 C-7.38703475 21.72789273 -7.38703475 21.72789273 -7.0234375 19.1875 C-9.51039189 16.33481702 -11.25934637 14.43666015 -14.8984375 13.25 C-18.70824605 13.17380383 -21.48086719 13.78384007 -25.0234375 15.1875 C-27.33439628 17.57814701 -28.55736259 20.2306063 -30.0234375 23.1875 C-35.8762325 22.67267081 -41.3532012 21.73392808 -47.0234375 20.1875 C-46.17312473 12.69086497 -43.5374209 8.28533371 -38.0234375 3.1875 C-27.84961223 -4.70240531 -11.57667997 -5.72866638 0 0 Z M-15.8359375 38.375 C-16.54814453 38.47619141 -17.26035156 38.57738281 -17.99414062 38.68164062 C-23.05462761 39.54768141 -25.78948848 40.95362154 -29.0234375 45.1875 C-29.36003895 48.83157137 -29.36003895 48.83157137 -28.0234375 52.1875 C-25.73114808 54.47978942 -24.13069076 55.12224751 -20.90234375 55.3125 C-16.93283635 55.09829387 -13.81340383 54.45145792 -10.5859375 52.0625 C-7.01779705 48.05922047 -6.12367487 44.54307826 -5.8984375 39.25 C-5.9396875 38.569375 -5.9809375 37.88875 -6.0234375 37.1875 C-9.3400472 37.1875 -12.57335252 37.83172004 -15.8359375 38.375 Z " fill="#1E1E1E" transform="translate(644.0234375,43.8125)"/>
<path d="M0 0 C5.47151473 3.98754303 8.25268396 8.44094779 10 15 C10.44642718 18.97946316 10.48791511 22.93563726 10.51171875 26.9375 C10.52966995 28.05817871 10.54762115 29.17885742 10.56611633 30.33349609 C10.62000344 33.88895991 10.6540464 37.44429111 10.6875 41 C10.72069205 43.42059128 10.75518345 45.84116511 10.79101562 48.26171875 C10.87571784 54.17438318 10.94263233 60.08700974 11 66 C5.06 66 -0.88 66 -7 66 C-7.33 64.35 -7.66 62.7 -8 61 C-8.81404297 61.63228516 -8.81404297 61.63228516 -9.64453125 62.27734375 C-10.35996094 62.82519531 -11.07539063 63.37304688 -11.8125 63.9375 C-12.52019531 64.48277344 -13.22789062 65.02804688 -13.95703125 65.58984375 C-19.78334058 69.61144541 -28.21709551 68.46778652 -35 68 C-41.24637402 66.45469734 -45.55896487 62.32514289 -49 57 C-51.46990983 51.30846865 -51.35406247 45.96973529 -50 40 C-46.82811116 33.77369969 -42.34947089 29.56348433 -35.75 27.375 C-29.9486458 25.80899028 -24.00280071 24.91329702 -18.06933594 24.00146484 C-13.90989517 23.43086274 -13.90989517 23.43086274 -10 22 C-9.9384058 18.58863524 -9.9384058 18.58863524 -11 15 C-14.3834333 12.67388961 -16.28775292 11.87810161 -20.359375 12.16796875 C-24.50690336 12.96087858 -27.23961448 13.66281751 -30 17 C-31.19027984 19.59915538 -31.19027984 19.59915538 -32 22 C-37.91492272 21.54775239 -43.35199888 20.8417395 -49 19 C-48.75317708 12.08895813 -46.99864196 7.8583995 -42 3 C-30.09105319 -5.64570784 -13.14593951 -7.55334491 0 0 Z M-18.875 37.25 C-19.59558594 37.35957031 -20.31617188 37.46914062 -21.05859375 37.58203125 C-25.55707618 38.36905856 -28.29250277 39.23456041 -31 43 C-31.41847417 46.40757541 -31.640169 48.79968313 -30 51.875 C-26.76419328 53.69514128 -23.64953774 54.20780286 -20 54 C-15.55495846 52.73450775 -12.72499374 50.9968664 -10 47.25 C-8.76996812 43.2523964 -8.78447278 40.16685949 -9 36 C-12.33879611 36 -15.59343236 36.68661582 -18.875 37.25 Z " fill="#1E1E1E" transform="translate(488,45)"/>
<path d="M0 0 C6.27 0 12.54 0 19 0 C19.03738281 2.95066406 19.07476562 5.90132812 19.11328125 8.94140625 C19.15955592 11.81428233 19.21076798 14.68703118 19.26245117 17.55981445 C19.29560684 19.54899294 19.32366765 21.53826339 19.34643555 23.52758789 C19.380154 26.39509084 19.43247823 29.26175817 19.48828125 32.12890625 C19.49467117 33.01147598 19.5010611 33.89404572 19.50764465 34.80335999 C19.63599862 40.25251 20.35562181 44.19519485 23 49 C27.23552856 51.82368571 31.02477314 51.66653757 36 51 C38.93423195 49.20353146 40.47205355 48.0558929 42 45 C42.11767472 43.5505207 42.17689268 42.09606004 42.20532227 40.64208984 C42.22526749 39.74130707 42.24521271 38.84052429 42.26576233 37.91244507 C42.28247482 36.93844757 42.29918732 35.96445007 42.31640625 34.9609375 C42.33718735 33.96494537 42.35796844 32.96895325 42.37937927 31.94277954 C42.44489042 28.75359146 42.50376704 25.56431942 42.5625 22.375 C42.60568373 20.21613707 42.64929797 18.0572827 42.69335938 15.8984375 C42.80138549 10.59904322 42.9004474 5.29958743 43 0 C49.6 0 56.2 0 63 0 C63 22.44 63 44.88 63 68 C57.06 68 51.12 68 45 68 C45 66.68 45 65.36 45 64 C44.29617188 64.433125 43.59234375 64.86625 42.8671875 65.3125 C34.06785555 70.27504752 26.29041705 71.74711178 16.359375 69.3671875 C9.19626008 66.66274615 4.58185214 61.42983773 1.42407227 54.58300781 C-0.54211662 49.1983781 -0.3764022 43.95201148 -0.29296875 38.28125 C-0.28872391 37.18276733 -0.28447906 36.08428467 -0.28010559 34.95251465 C-0.26340661 31.4680864 -0.22576996 27.98425139 -0.1875 24.5 C-0.17244185 22.12761256 -0.15875543 19.75521599 -0.14648438 17.3828125 C-0.11353173 11.58831552 -0.06180965 5.79425811 0 0 Z " fill="#1E1E1E" transform="translate(276,43)"/>
<path d="M0 0 C4.91311618 2.35299325 8.71672672 5.76956463 11.4375 10.5 C12.0975 13.14 12.7575 15.78 13.4375 18.5 C8.1575 19.82 2.8775 21.14 -2.5625 22.5 C-5.5625 17.5 -5.5625 17.5 -5.5625 15.5 C-8.34851223 14.57132926 -10.17316089 14.33657783 -13.0625 14.3125 C-13.8359375 14.29832031 -14.609375 14.28414062 -15.40625 14.26953125 C-17.85930056 14.36338472 -17.85930056 14.36338472 -20.5625 16.5 C-21.22935938 18.95672892 -21.22935938 18.95672892 -20.5625 21.5 C-16.6424507 24.46064909 -12.46016058 25.37472396 -7.75 26.375 C-0.23203213 28.1199384 5.27808254 30.34058254 10.8125 35.875 C14.2731039 41.4652063 14.87081787 46.60511952 14.04296875 53.00390625 C12.53583287 59.21719544 8.7858571 64.06177043 3.4375 67.5 C-5.80729789 72.39430476 -15.58900413 72.2688849 -25.5625 69.5 C-31.37234924 66.99474622 -36.2187575 62.88958494 -39.5625 57.5 C-40.5458995 54.80510715 -41.06362676 52.34357744 -41.5625 49.5 C-36.02708058 47.40551698 -30.37485021 46.47217245 -24.5625 45.5 C-23.91145833 47.2578125 -23.26041667 49.015625 -22.609375 50.7734375 C-21.22981103 53.04868853 -20.04758423 53.59876658 -17.5625 54.5 C-15.3047059 54.81321939 -15.3047059 54.81321939 -13 54.75 C-11.85337891 54.75773437 -11.85337891 54.75773437 -10.68359375 54.765625 C-8.26267238 54.6229561 -8.26267238 54.6229561 -5.5625 52.5 C-4.89564062 50.04327108 -4.89564062 50.04327108 -5.5625 47.5 C-9.40173627 44.64407095 -13.25826075 43.69076412 -17.875 42.625 C-26.16149815 40.56568712 -32.76408488 37.88217711 -37.5625 30.5 C-40.23608598 25.82122454 -40.19424225 20.73786298 -39.5625 15.5 C-37.75156711 9.3515033 -33.92412614 4.92295906 -28.5625 1.5 C-19.89310198 -2.8869243 -9.21924589 -3.18148823 0 0 Z " fill="#1E1E1E" transform="translate(709.5625,42.5)"/>
<path d="M0 0 C0.70108887 0.00684814 1.40217773 0.01369629 2.12451172 0.02075195 C7.92404573 0.19993219 12.28007139 1.29400242 17.125 4.4375 C18.218125 5.13875 19.31125 5.84 20.4375 6.5625 C24.02847372 10.40400677 25.49413568 14.49694045 27.125 19.4375 C24.340707 22.221793 21.238137 22.38660069 17.5 23.0625 C16.79359375 23.1965625 16.0871875 23.330625 15.359375 23.46875 C13.61588082 23.79860025 11.87059611 24.11896056 10.125 24.4375 C9.691875 23.48875 9.25875 22.54 8.8125 21.5625 C7.33197799 18.23708063 7.33197799 18.23708063 4.125 16.4375 C2.17285375 16.12271423 2.17285375 16.12271423 0.125 16.1875 C-0.555625 16.18234375 -1.23625 16.1771875 -1.9375 16.171875 C-4.19916007 16.33832397 -4.19916007 16.33832397 -6.875 18.4375 C-7.1252157 21.52115871 -7.1252157 21.52115871 -6.875 24.4375 C-6.30394531 24.60765625 -5.73289063 24.7778125 -5.14453125 24.953125 C-3.40756865 25.47228075 -1.67202123 25.99618247 0.0625 26.5234375 C2.18080668 27.1556872 4.30649645 27.76352614 6.4375 28.3515625 C14.5799127 30.66988834 20.1072943 32.72340068 25.5625 39.4375 C28.5147684 45.27813488 28.10901576 52.64903933 26.5 58.84375 C23.79046385 65.13374464 18.57500359 68.53091907 12.75 71.75 C2.84690924 74.34366663 -7.44856321 73.89284072 -16.75 69.375 C-22.59059674 65.78568782 -26.12838618 60.47728483 -27.75 53.875 C-27.79125 53.070625 -27.8325 52.26625 -27.875 51.4375 C-24.1227416 49.78065863 -20.61146939 48.93541837 -16.5625 48.3125 C-14.95955078 48.06113281 -14.95955078 48.06113281 -13.32421875 47.8046875 C-12.51597656 47.68351562 -11.70773438 47.56234375 -10.875 47.4375 C-10.441875 48.55125 -10.00875 49.665 -9.5625 50.8125 C-8.17588881 54.61262334 -8.17588881 54.61262334 -4.875 56.4375 C-0.21056149 57.68135027 2.67279565 57.23958271 7.125 55.4375 C7.455 53.4575 7.785 51.4775 8.125 49.4375 C3.11383934 45.95585023 -2.26004513 44.88434675 -8.10546875 43.5078125 C-14.30061333 41.92518733 -19.25590671 39.54890405 -23.43359375 34.5859375 C-26.53000305 28.33807162 -27.17746876 21.91521803 -25.21484375 15.16796875 C-22.40133942 8.79800006 -17.75378423 4.89599141 -11.63671875 1.796875 C-7.64614614 0.35479892 -4.18943167 -0.06307865 0 0 Z " fill="#1E1E1E" transform="translate(235.875,40.5625)"/>
</svg>
